<?xml version="1.0" encoding="UTF-8"?>
<svg version="1.1" xmlns="http://www.w3.org/2000/svg" width="426" height="457">
<path d="M0 0 C0.58644287 0.44093994 1.17288574 0.88187988 1.77709961 1.33618164 C3.88238801 2.99013104 5.62557464 4.51066647 6.984375 6.8359375 C6.80616931 10.26003255 4.83892998 12.71987959 3 15.5 C-12.2473836 39.78331819 -16.74224308 61.23712888 -11.26171875 89.30859375 C-11.10913794 90.11383421 -10.95655712 90.91907467 -10.79935265 91.74871635 C-7.12571547 111.11450573 -2.40564942 130.22306594 2.39373779 149.33477783 C4.39602042 157.31448718 6.38032963 165.29868842 8.35546875 173.28515625 C8.56347296 174.12607189 8.77147717 174.96698753 8.98578453 175.83338547 C12.95745734 191.93219709 16.91997262 208.10805437 18.1875 224.6875 C18.26379639 225.64011719 18.34009277 226.59273438 18.41870117 227.57421875 C20.79133767 261.04383653 9.05507315 288.200317 -12.53027344 313.13183594 C-40.92538345 345.28282088 -83.67462686 363.88292392 -126.125 366.9375 C-129.11043383 367.06407022 -132.0949287 367.15068597 -135.08203125 367.2277832 C-158.46537962 367.85309315 -175.58041539 371.77927221 -193.125 387.9375 C-194.29166667 387.0625 -195.45833333 386.1875 -196.625 385.3125 C-197.3571875 384.7659375 -198.089375 384.219375 -198.84375 383.65625 C-200.29146251 382.5655077 -201.73019289 381.46265634 -203.15625 380.34375 C-216.51791507 369.95134384 -231.04248146 368.02093704 -247.5625 367.5 C-291.97720673 365.79044772 -332.91831171 352.26056814 -366.125 321.9375 C-367.41083984 320.77541016 -367.41083984 320.77541016 -368.72265625 319.58984375 C-390.60499424 298.81722813 -404.9720959 271.00313582 -406.078125 240.73046875 C-406.35843205 225.99302073 -404.06880703 211.67674323 -401.0625 197.29296875 C-400.9113826 196.56298424 -400.7602652 195.83299973 -400.60456848 195.08089447 C-397.39636982 179.63040838 -393.61176159 164.34108367 -389.72897339 149.04891968 C-381.97637954 118.48755842 -381.97637954 118.48755842 -375.5625 87.625 C-375.42457031 86.90364868 -375.28664063 86.18229736 -375.14453125 85.43908691 C-370.02945401 58.33645766 -376.12104267 36.10018205 -391.375 13.25 C-391.93703125 12.48300781 -392.4990625 11.71601562 -393.078125 10.92578125 C-394.125 8.9375 -394.125 8.9375 -393.86865234 6.97973633 C-392.58245369 3.44754601 -389.39257256 1.54006798 -386.5 -0.6875 C-385.82485352 -1.21529053 -385.14970703 -1.74308105 -384.45410156 -2.28686523 C-371.74754905 -12.09711461 -358.10773947 -20.21845019 -344.125 -28.0625 C-343.465 -28.43648926 -342.805 -28.81047852 -342.125 -29.19580078 C-313.90719876 -45.11975268 -281.86851313 -55.15722234 -250.125 -61.0625 C-249.26793457 -61.22685547 -248.41086914 -61.39121094 -247.52783203 -61.56054688 C-160.86805067 -77.78857907 -69.46641882 -53.14583181 0 0 Z " fill="#27231D" transform="translate(407.125,67.0625)"/>
<path d="M0 0 C0.71833008 0.00060425 1.43666016 0.0012085 2.17675781 0.00183105 C18.57671785 0.03903769 34.42505697 1.56305227 50.625 4.0625 C51.594375 4.21170898 52.56375 4.36091797 53.5625 4.51464844 C68.38013177 6.93638037 82.64103885 10.77414565 96.8125 15.6875 C97.56380188 15.9462793 98.31510376 16.20505859 99.08917236 16.47167969 C131.30820451 27.62719792 159.72006201 43.73057097 186.875 64.1875 C186.13056641 65.55068359 186.13056641 65.55068359 185.37109375 66.94140625 C181.79422203 73.53695568 178.29922636 80.1675465 175.0625 86.9375 C174.51980469 88.06671875 173.97710937 89.1959375 173.41796875 90.359375 C169.62726234 99.24042424 168.34503059 107.76405213 168.4375 117.375 C168.44507324 118.50357422 168.45264648 119.63214844 168.46044922 120.79492188 C168.81624642 139.40025866 173.18329108 157.34977549 177.5078125 175.3671875 C180.875 189.52245146 180.875 189.52245146 180.875 195.1875 C179.225 195.1875 177.575 195.1875 175.875 195.1875 C175.545 191.8875 175.215 188.5875 174.875 185.1875 C173.555 186.1775 172.235 187.1675 170.875 188.1875 C170.215 188.1875 169.555 188.1875 168.875 188.1875 C168.545 181.5875 168.215 174.9875 167.875 168.1875 C167.215 168.1875 166.555 168.1875 165.875 168.1875 C165.875 168.8475 165.875 169.5075 165.875 170.1875 C163.895 171.1775 163.895 171.1775 161.875 172.1875 C161.5353981 170.31362523 161.20361309 168.43833303 160.875 166.5625 C160.689375 165.51835937 160.50375 164.47421875 160.3125 163.3984375 C159.88784203 160.28175135 159.79954794 157.32819188 159.875 154.1875 C157.895 155.8375 155.915 157.4875 153.875 159.1875 C153.36809416 157.12668639 152.86975381 155.06376474 152.375 153 C151.95734375 151.27716797 151.95734375 151.27716797 151.53125 149.51953125 C150.96004615 146.61931171 150.74216221 144.12653615 150.875 141.1875 C150.215 141.1875 149.555 141.1875 148.875 141.1875 C148.58625 141.826875 148.2975 142.46625 148 143.125 C146.875 145.1875 146.875 145.1875 144.875 146.1875 C142.895 138.2675 142.895 138.2675 140.875 130.1875 C139.225 131.1775 137.575 132.1675 135.875 133.1875 C135.2049166 131.06357494 134.53903203 128.93832476 133.875 126.8125 C133.50375 125.62914062 133.1325 124.44578125 132.75 123.2265625 C131.875 120.1875 131.875 120.1875 131.875 118.1875 C131.25625 118.8475 130.6375 119.5075 130 120.1875 C127.875 122.1875 127.875 122.1875 125.875 122.1875 C125.2049166 120.06357494 124.53903203 117.93832476 123.875 115.8125 C123.50375 114.62914063 123.1325 113.44578125 122.75 112.2265625 C121.875 109.1875 121.875 109.1875 121.875 107.1875 C117.43898034 110.70572249 116.35466871 114.94140186 114.875 120.1875 C114.15054687 119.83816406 113.42609375 119.48882812 112.6796875 119.12890625 C111.71289062 118.67386719 110.74609375 118.21882813 109.75 117.75 C108.79867188 117.29753906 107.84734375 116.84507812 106.8671875 116.37890625 C103.84592055 115.17592137 101.09119362 114.60264665 97.875 114.1875 C98.15846278 116.10539713 98.4521028 118.02179183 98.75 119.9375 C98.99363281 121.53851563 98.99363281 121.53851563 99.2421875 123.171875 C99.79840792 126.45763409 99.79840792 126.45763409 101.875 130.1875 C94.945 131.1775 94.945 131.1775 87.875 132.1875 C88.98875 133.486875 90.1025 134.78625 91.25 136.125 C91.87648438 136.85589844 92.50296875 137.58679688 93.1484375 138.33984375 C94.75247714 140.27130906 94.75247714 140.27130906 96.875 141.1875 C96.978125 141.744375 97.08125 142.30125 97.1875 142.875 C98.24165783 146.42080361 100.38884342 148.45879156 102.875 151.1875 C103.535 151.5175 104.195 151.8475 104.875 152.1875 C105.019375 152.7959375 105.16375 153.404375 105.3125 154.03125 C105.98845645 156.62241639 107.04795243 157.75504584 108.875 159.6875 C111.26710894 162.21761523 112.06910684 163.84336066 112.875 167.1875 C113.80273089 168.69945793 114.7866712 170.17780386 115.8125 171.625 C118.0157505 174.73770034 119.48205952 177.64641034 120.875 181.1875 C122.13921728 183.27920495 123.48697132 185.29314526 124.8515625 187.3203125 C125.875 189.1875 125.875 189.1875 125.875 192.1875 C126.205 193.1775 126.535 194.1675 126.875 195.1875 C102.455 195.1875 78.035 195.1875 52.875 195.1875 C55.76902408 177.82335552 63.85907089 161.73130506 69.875 145.1875 C-3.88 144.6925 -3.88 144.6925 -79.125 144.1875 C-73.515 159.3675 -67.905 174.5475 -62.125 190.1875 C-62.125 191.8375 -62.125 193.4875 -62.125 195.1875 C-83.905 195.1875 -105.685 195.1875 -128.125 195.1875 C-126.145 192.2175 -124.165 189.2475 -122.125 186.1875 C-121.795 185.15625 -121.465 184.125 -121.125 183.0625 C-119.90364558 179.55110605 -118.01264537 177.55213796 -115.46484375 174.8984375 C-114.00155336 173.26955841 -114.00155336 173.26955841 -113.62890625 171.1953125 C-112.8396864 168.05066905 -110.68277207 166.27745123 -108.5 163.96875 C-107.00137638 162.28162755 -107.00137638 162.28162755 -106.65625 160.1875 C-105.77711223 156.87780486 -103.19548481 155.20187155 -100.71875 152.96875 C-98.94521445 150.98656321 -98.69346834 149.73280418 -98.125 147.1875 C-96.50050757 145.47970027 -94.83279973 143.81199243 -93.125 142.1875 C-92.465 141.1975 -91.805 140.2075 -91.125 139.1875 C-93.69393838 137.90303081 -95.89076337 137.85772856 -98.75 137.625 C-99.75289063 137.54121094 -100.75578125 137.45742187 -101.7890625 137.37109375 C-102.55992188 137.31050781 -103.33078125 137.24992188 -104.125 137.1875 C-103.70927734 136.33478516 -103.70927734 136.33478516 -103.28515625 135.46484375 C-101.01563217 130.62696147 -99.57844816 126.51551588 -99.125 121.1875 C-101.02272191 121.44476693 -102.91815677 121.71893339 -104.8125 122 C-105.86824219 122.15082031 -106.92398438 122.30164063 -108.01171875 122.45703125 C-111.22693753 123.21141759 -113.40600323 124.34624987 -116.125 126.1875 C-116.53492187 125.33285156 -116.94484375 124.47820312 -117.3671875 123.59765625 C-117.90601562 122.49292969 -118.44484375 121.38820313 -119 120.25 C-119.53367187 119.14785156 -120.06734375 118.04570312 -120.6171875 116.91015625 C-121.84159845 114.09345489 -121.84159845 114.09345489 -124.125 113.1875 C-124.25777344 113.90292969 -124.39054687 114.61835937 -124.52734375 115.35546875 C-125.11273535 118.12938322 -125.85658444 120.79049275 -126.6875 123.5 C-126.95691406 124.38300781 -127.22632813 125.26601562 -127.50390625 126.17578125 C-127.70886719 126.83964844 -127.91382813 127.50351563 -128.125 128.1875 C-130.125 128.1875 -130.125 128.1875 -132.25 126.1875 C-132.86875 125.5275 -133.4875 124.8675 -134.125 124.1875 C-134.24617188 124.75597656 -134.36734375 125.32445312 -134.4921875 125.91015625 C-135.53822054 130.72995464 -136.71704484 135.4607934 -138.125 140.1875 C-139.445 138.8675 -140.765 137.5475 -142.125 136.1875 C-144.20635307 141.48548964 -145.83791613 146.64313871 -147.125 152.1875 C-150.095 150.2075 -150.095 150.2075 -153.125 148.1875 C-153.310625 149.92 -153.310625 149.92 -153.5 151.6875 C-154.02778885 155.97100375 -155.00898037 160.02102672 -156.125 164.1875 C-157.445 163.5275 -158.765 162.8675 -160.125 162.1875 C-162.04971317 167.52585539 -163.52391424 172.53729382 -164.125 178.1875 C-166.105 177.1975 -168.085 176.2075 -170.125 175.1875 C-170.455 181.7875 -170.785 188.3875 -171.125 195.1875 C-173.435 193.8675 -175.745 192.5475 -178.125 191.1875 C-178.125 192.5075 -178.125 193.8275 -178.125 195.1875 C-179.445 195.1875 -180.765 195.1875 -182.125 195.1875 C-181.80274961 188.48469181 -180.47163502 182.25647151 -178.78051758 175.77294922 C-176.7207985 167.79004158 -175.12207345 159.73052519 -173.59521484 151.63085938 C-173.15765558 149.35718694 -172.68628264 147.09330022 -172.20703125 144.828125 C-166.28903662 115.47702484 -171.82921886 94.0290736 -186.1027832 68.38549805 C-187.125 66.1875 -187.125 66.1875 -187.125 63.1875 C-185.79003906 61.84399414 -185.79003906 61.84399414 -183.890625 60.47265625 C-183.18188232 59.95751465 -182.47313965 59.44237305 -181.74291992 58.91162109 C-180.96150635 58.36328613 -180.18009277 57.81495117 -179.375 57.25 C-178.56587158 56.67588379 -177.75674316 56.10176758 -176.9230957 55.51025391 C-167.95120441 49.23397643 -158.65411047 43.5724116 -149.125 38.1875 C-148.29129883 37.71570312 -147.45759766 37.24390625 -146.59863281 36.7578125 C-101.76968105 11.68545941 -51.16698795 -0.08062025 0 0 Z " fill="#FCF200" transform="translate(214.125,11.8125)"/>
<path d="M0 0 C24.42 0 48.84 0 74 0 C77.32180421 7.97233011 80.49325647 15.88376339 83.390625 24.00390625 C83.7807074 25.08961411 84.17078979 26.17532196 84.57269287 27.29393005 C85.80131694 30.71577047 87.02568855 34.13911453 88.25 37.5625 C89.08566519 39.89137377 89.9216004 42.22015067 90.7578125 44.54882812 C92.27796837 48.78531648 93.79744976 53.02204187 95.31347656 57.26000977 C95.61594299 58.1053981 95.91840942 58.95078644 96.2300415 59.8217926 C97.55206419 63.56178588 98.13949229 66.48174175 98.2109375 70.4453125 C98.23929687 71.52296875 98.26765625 72.600625 98.296875 73.7109375 C98.34841847 75.96338699 98.39284366 78.21601212 98.4296875 80.46875 C98.71431164 90.4543136 100.3081821 99.20882368 107.56640625 106.59375 C114.39973844 112.83088542 120.35842528 114.71695705 129.578125 114.47265625 C137.09373768 113.4345408 143.78037688 110.08498596 148.5625 104.125 C153.12498791 97.55842862 154.23374241 91.46312654 154.06126404 83.67094421 C153.75044354 66.42416889 159.01974238 52.01370749 165.15045166 36.22888184 C166.47973419 32.78109714 167.76384933 29.31655637 169.05273438 25.85351562 C172.28310521 17.20225134 175.57023336 8.5744166 179 0 C206.72 0 234.44 0 263 0 C268.17628405 15.52885215 270.2376655 28.62748796 270 45 C269.34 45 268.68 45 268 45 C268.05800781 45.72703125 268.11601562 46.4540625 268.17578125 47.203125 C268.74203949 59.82259437 263.12572581 69.30629309 257 80 C256.34 80 255.68 80 255 80 C254.6596875 80.7734375 254.6596875 80.7734375 254.3125 81.5625 C251.02270304 87.67212292 247.20694666 91.97138005 241.8671875 96.32421875 C239.92077344 97.95784758 239.92077344 97.95784758 238.4296875 100.125 C237 102 237 102 234.25 103.3125 C230.60020608 105.20758531 228.49686032 107.42083503 225.80859375 110.4765625 C224 112 224 112 221.6171875 112.45703125 C218.16281816 113.17368399 216.37191958 114.80758756 213.6875 117.0625 C212.80449219 117.79597656 211.92148437 118.52945313 211.01171875 119.28515625 C210.34785156 119.85105469 209.68398438 120.41695313 209 121 C208.34 120.67 207.68 120.34 207 120 C204.66113657 121.22723633 202.43473975 122.49669295 200.1875 123.875 C196.16921644 126.33551637 192.69160398 128.2129217 188 129 C178.4153171 133.12244426 171.25527527 139.67496247 164 147 C163.34 146.67 162.68 146.34 162 146 C157.70709832 145.8615193 154.14349915 145.88444254 150 147 C149.34 146.67 148.68 146.34 148 146 C143.4134534 145.84962142 139.49104249 146.04735462 135 147 C134.67 146.67 134.34 146.34 134 146 C131.96618256 145.80034595 131.96618256 145.80034595 129.625 145.8125 C128.83351562 145.79832031 128.04203125 145.78414062 127.2265625 145.76953125 C124.71268667 145.85492491 124.71268667 145.85492491 122 148 C121.01 147.34 120.02 146.68 119 146 C114.67919168 145.79424722 111.16660955 145.87822051 107 147 C106.34 146.67 105.68 146.34 105 146 C99.36470902 145.63047272 96.79813951 145.81798776 92 149 C91.51273437 148.50371094 91.02546875 148.00742187 90.5234375 147.49609375 C83.95796203 141.20517453 75.50489774 135.25806868 66.39453125 133.49609375 C63.43734244 132.88342984 61.47044256 131.62859985 58.9375 130 C55.65604888 127.83762591 55.65604888 127.83762591 52.00390625 126.53125 C48.30265581 125.55002181 45.47155107 122.85078799 42.4375 120.59375 C40.1702093 118.9168083 40.1702093 118.9168083 37.8984375 118.4921875 C35.34934082 117.83131058 34.37031126 116.56696605 32.625 114.625 C30.39639405 112.27810286 29.03666786 111.01716368 26.0625 109.625 C22.06916836 107.50608933 19.77383013 104.60994078 16.87109375 101.19140625 C14.96598939 98.89270456 14.96598939 98.89270456 12.5 96.5625 C5.29201392 89.17431426 0.1917359 81.42155059 -4 72 C-4.31839844 71.31292969 -4.63679688 70.62585938 -4.96484375 69.91796875 C-10.48563628 56.87131974 -11.51070653 39.58689022 -8 26 C-7.68056443 24.31379912 -7.36813395 22.62625706 -7.0625 20.9375 C-5.57619114 13.52917925 -2.97809675 6.94889242 0 0 Z " fill="#00913E" transform="translate(83,218)"/>
<path d="M0 0 C1.134375 0.020625 2.26875 0.04125 3.4375 0.0625 C3.7675 2.3725 4.0975 4.6825 4.4375 7.0625 C-0.3125 5.1875 -0.3125 5.1875 -2.5625 4.0625 C-2.2325 10.3325 -1.9025 16.6025 -1.5625 23.0625 C-3.5425 22.4025 -5.5225 21.7425 -7.5625 21.0625 C-7.27375 22.32707031 -6.985 23.59164062 -6.6875 24.89453125 C-6.31233202 26.55464955 -5.93734124 28.2148079 -5.5625 29.875 C-5.37171875 30.70837891 -5.1809375 31.54175781 -4.984375 32.40039062 C-4.71367187 33.60405273 -4.71367187 33.60405273 -4.4375 34.83203125 C-4.26992188 35.57042236 -4.10234375 36.30881348 -3.9296875 37.06958008 C-3.5625 39.0625 -3.5625 39.0625 -3.5625 42.0625 C-5.8725 41.7325 -8.1825 41.4025 -10.5625 41.0625 C-10.35568604 41.58682617 -10.14887207 42.11115234 -9.93579102 42.65136719 C-8.99630479 45.03741421 -8.06061835 47.4249338 -7.125 49.8125 C-6.79951172 50.6375 -6.47402344 51.4625 -6.13867188 52.3125 C-5.82607422 53.11171875 -5.51347656 53.9109375 -5.19140625 54.734375 C-4.90338135 55.4675293 -4.61535645 56.20068359 -4.31860352 56.95605469 C-3.59385375 58.9751509 -3.0435009 60.97334587 -2.5625 63.0625 C-5.2025 62.7325 -7.8425 62.4025 -10.5625 62.0625 C-9.15148467 64.6282565 -7.73395884 67.19003729 -6.3125 69.75 C-5.91675781 70.47123047 -5.52101563 71.19246094 -5.11328125 71.93554688 C-2.87171086 75.95934946 -0.46677073 79.47212862 2.4375 83.0625 C2.4375 83.7225 2.4375 84.3825 2.4375 85.0625 C-1.0275 85.5575 -1.0275 85.5575 -4.5625 86.0625 C-4.5625 89.48718753 -1.55824236 91.55461307 0.6875 93.9375 C1.17863281 94.46730469 1.66976562 94.99710937 2.17578125 95.54296875 C4.8731169 98.44170547 7.6171611 101.28245165 10.4375 104.0625 C6.4775 105.0525 6.4775 105.0525 2.4375 106.0625 C7.44661527 111.58979961 13.75535674 116.72142837 20.4375 120.0625 C20.4375 120.7225 20.4375 121.3825 20.4375 122.0625 C18.1275 123.0525 15.8175 124.0425 13.4375 125.0625 C16.61413219 127.55951617 19.94211216 129.60204429 23.4375 131.625 C24.46875 132.22441406 25.5 132.82382812 26.5625 133.44140625 C28.82950255 134.71967535 31.09525472 135.93079014 33.4375 137.0625 C28.6875 141.0625 28.6875 141.0625 26.4375 141.0625 C26.4375 141.7225 26.4375 142.3825 26.4375 143.0625 C27.654375 143.454375 28.87125 143.84625 30.125 144.25 C36.31059974 146.30527915 42.36840361 148.68926756 48.4375 151.0625 C46.4575 153.3725 44.4775 155.6825 42.4375 158.0625 C43.18773437 158.24425781 43.93796875 158.42601562 44.7109375 158.61328125 C51.35045784 160.24389393 57.91084807 162.02653115 64.4375 164.0625 C62.7875 166.0425 61.1375 168.0225 59.4375 170.0625 C67.08218047 171.85983867 74.72792025 173.56661139 82.4375 175.0625 C80.7875 177.7025 79.1375 180.3425 77.4375 183.0625 C79.479375 183.0315625 79.479375 183.0315625 81.5625 183 C88.21161078 182.99044668 94.81355036 183.52800262 101.4375 184.0625 C99.93875873 187.17527032 98.22585363 190.10804181 96.4375 193.0625 C100.87569968 192.98063776 105.31262257 192.86788521 109.75 192.75 C110.99330078 192.72744141 112.23660156 192.70488281 113.51757812 192.68164062 C124.33462333 192.36933748 134.80186535 191.14122936 143.4375 184.0625 C144.076875 183.175625 144.71625 182.28875 145.375 181.375 C148.43714914 177.94168126 151.98549949 177.58764795 156.4375 177.0625 C160.4375 177.0625 160.4375 177.0625 162.4375 178.0625 C165.7763182 178.28508788 168.01752082 178.23830524 171.125 176.9375 C172.2696875 176.504375 172.2696875 176.504375 173.4375 176.0625 C174.4275 176.7225 175.4175 177.3825 176.4375 178.0625 C178.6658879 178.12583337 178.6658879 178.12583337 181 177.75 C181.78503906 177.65074219 182.57007813 177.55148437 183.37890625 177.44921875 C185.49152631 177.14981629 185.49152631 177.14981629 187.4375 176.0625 C188.4275 176.7225 189.4175 177.3825 190.4375 178.0625 C192.59952424 178.08779705 192.59952424 178.08779705 194.875 177.6875 C202.47550786 176.58150393 202.47550786 176.58150393 205.4375 178.0625 C208.81850388 178.28790026 210.8410122 178.40783504 213.8125 176.6875 C214.67875 176.48125 215.545 176.275 216.4375 176.0625 C218.53582234 177.36124136 220.34892486 178.88416336 222.24609375 180.4609375 C225.67098136 182.96397479 229.39073516 183.95303193 233.4375 185.0625 C234.4275 185.3925 235.4175 185.7225 236.4375 186.0625 C238.57544525 186.1458804 240.71592009 186.16983747 242.85546875 186.16015625 C244.10908203 186.15693359 245.36269531 186.15371094 246.65429688 186.15039062 C247.96462891 186.14201172 249.27496094 186.13363281 250.625 186.125 C251.96028481 186.11998317 253.29557141 186.11542059 254.63085938 186.11132812 C257.89978473 186.09952695 261.16861991 186.08306297 264.4375 186.0625 C262.7875 183.4225 261.1375 180.7825 259.4375 178.0625 C260.83484375 177.92972656 262.2321875 177.79695312 263.671875 177.66015625 C265.51043199 177.48192879 267.34897282 177.30353466 269.1875 177.125 C270.10789062 177.03798828 271.02828125 176.95097656 271.9765625 176.86132812 C272.86601562 176.77431641 273.75546875 176.68730469 274.671875 176.59765625 C275.48881836 176.519104 276.30576172 176.44055176 277.14746094 176.35961914 C279.30870901 176.07920988 281.33767313 175.63805495 283.4375 175.0625 C282.2 173.886875 282.2 173.886875 280.9375 172.6875 C278.4375 170.0625 278.4375 170.0625 278.4375 168.0625 C281.49897257 167.55607075 284.56182299 167.05850678 287.625 166.5625 C288.48931641 166.41941406 289.35363281 166.27632812 290.24414062 166.12890625 C294.34276577 165.46935738 298.26976024 164.85540734 302.4375 165.0625 C301.2309375 163.9178125 301.2309375 163.9178125 300 162.75 C297.4375 160.0625 297.4375 160.0625 296.4375 157.0625 C303.3675 155.0825 310.2975 153.1025 317.4375 151.0625 C317.4375 150.4025 317.4375 149.7425 317.4375 149.0625 C316.7775 148.5675 316.1175 148.0725 315.4375 147.5625 C314.7775 147.0675 314.1175 146.5725 313.4375 146.0625 C313.4375 145.4025 313.4375 144.7425 313.4375 144.0625 C314.54609375 143.66417969 315.6546875 143.26585937 316.796875 142.85546875 C318.26054586 142.32066594 319.72408043 141.78549003 321.1875 141.25 C321.91710937 140.98896484 322.64671875 140.72792969 323.3984375 140.45898438 C327.17828193 139.06731438 330.36258165 137.7570995 333.4375 135.0625 C332.6125 134.60875 331.7875 134.155 330.9375 133.6875 C329.7 132.883125 329.7 132.883125 328.4375 132.0625 C328.4375 131.4025 328.4375 130.7425 328.4375 130.0625 C331.20633196 128.57956418 333.9778973 127.10181138 336.75 125.625 C337.53568359 125.20412109 338.32136719 124.78324219 339.13085938 124.34960938 C339.88818359 123.94677734 340.64550781 123.54394531 341.42578125 123.12890625 C342.12227783 122.75709229 342.81877441 122.38527832 343.53637695 122.00219727 C345.4375 121.0625 345.4375 121.0625 348.4375 120.0625 C348.4375 119.4025 348.4375 118.7425 348.4375 118.0625 C347.303125 117.77375 346.16875 117.485 345 117.1875 C343.824375 116.81625 342.64875 116.445 341.4375 116.0625 C341.1075 115.4025 340.7775 114.7425 340.4375 114.0625 C341.15035156 113.62679687 341.86320312 113.19109375 342.59765625 112.7421875 C348.29486728 109.19964175 353.47796121 105.5811909 358.4375 101.0625 C356.07796906 98.70296906 354.65854383 98.57108587 351.4375 98.0625 C352.75401212 95.05057714 354.02076368 93.35946383 356.625 91.375 C360.96087738 87.83160441 364.14761426 83.56234372 367.4375 79.0625 C364.4675 78.7325 361.4975 78.4025 358.4375 78.0625 C358.87320312 77.39605469 359.30890625 76.72960937 359.7578125 76.04296875 C363.96376128 69.5337623 367.81908931 62.91494808 371.4375 56.0625 C369.1275 56.0625 366.8175 56.0625 364.4375 56.0625 C366.47557293 48.9446847 368.84094742 41.99542719 371.4375 35.0625 C367.9725 35.5575 367.9725 35.5575 364.4375 36.0625 C365.69147873 29.04555518 367.01334088 22.04693993 368.4375 15.0625 C366.4575 15.7225 364.4775 16.3825 362.4375 17.0625 C362.57813135 14.77050823 362.72515943 12.47890814 362.875 10.1875 C362.95621094 8.91132813 363.03742188 7.63515625 363.12109375 6.3203125 C363.4375 3.0625 363.4375 3.0625 364.4375 1.0625 C365.0975 1.0625 365.7575 1.0625 366.4375 1.0625 C371.64330302 20.62104793 376.57943018 40.18461032 380.4375 60.0625 C380.58445312 60.81869629 380.73140625 61.57489258 380.8828125 62.35400391 C382.39096139 70.47835386 382.62061436 78.57310716 382.6875 86.8125 C382.70176025 88.23332886 382.70176025 88.23332886 382.71630859 89.68286133 C382.57682717 119.32266485 366.47352184 143.52923382 346.4375 164.0625 C324.59397059 185.63540161 294.56039979 199.231163 264.4375 204.0625 C263.68452637 204.18963379 262.93155273 204.31676758 262.15576172 204.44775391 C250.91992126 206.31272372 239.8860536 207.24194348 228.5 207.5 C213.02089308 207.897261 196.96323406 210.20382977 184.9375 221 C183.7 222.0209375 183.7 222.0209375 182.4375 223.0625 C179.13573654 222.71673011 177.01889914 221.22994461 174.375 219.3125 C159.13768421 208.86979264 143.14476494 207.95008979 125.30419922 207.01293945 C111.18280938 206.26346205 97.1590783 205.27740865 83.5 201.375 C82.57034424 201.11372314 81.64068848 200.85244629 80.68286133 200.58325195 C71.96842379 198.05658071 63.64482313 194.92361913 55.4375 191.0625 C54.73818359 190.73411133 54.03886719 190.40572266 53.31835938 190.06738281 C30.34359761 179.06082042 9.06810683 161.73396919 -4.5625 140.0625 C-5.09423828 139.21824463 -5.09423828 139.21824463 -5.63671875 138.35693359 C-28.83584612 100.95526878 -19.44381849 62.30037988 -10.03497314 22.06048584 C-4.83829845 0.08488243 -4.83829845 0.08488243 0 0 Z " fill="#00903E" transform="translate(32.5625,216.9375)"/>
<path d="M0 0 C2.48660803 4.10878928 2.14509363 8.04805554 2.08959961 12.76196289 C2.09105484 13.7480101 2.09251007 14.73405731 2.0940094 15.74998474 C2.09235099 17.83205117 2.08079625 19.91412993 2.06005859 21.99609375 C2.0310794 25.18745808 2.03945592 28.37716397 2.05249023 31.56860352 C2.04625356 33.59139807 2.03786318 35.61418736 2.02709961 37.63696289 C2.03003525 38.59325089 2.03297089 39.54953888 2.03599548 40.5348053 C2.01696922 41.86650002 2.01696922 41.86650002 1.99755859 43.22509766 C1.99215561 44.00579117 1.98675262 44.78648468 1.98118591 45.59083557 C1.50161054 48.11714281 0.54029824 49.01660803 -1.40649414 50.63305664 C-0.1864147 53.32360944 -0.1864147 53.32360944 1.59350586 55.63305664 C1.7194688 58.55501512 1.78219154 61.45203396 1.79663086 64.37524414 C1.80233093 65.25455597 1.80803101 66.1338678 1.81390381 67.03982544 C1.8233689 68.9043863 1.82989375 70.768964 1.83374023 72.63354492 C1.84344162 75.48914759 1.87444866 78.34402948 1.90600586 81.19946289 C1.912536 83.00805235 1.91778643 84.81664698 1.92163086 86.62524414 C1.93397766 87.4815744 1.94632446 88.33790466 1.95904541 89.22018433 C1.95604431 90.01756012 1.95304321 90.81493591 1.94995117 91.63647461 C1.95541962 92.6878511 1.95541962 92.6878511 1.96099854 93.76046753 C1.47111486 96.25671004 0.62271336 97.13037878 -1.40649414 98.63305664 C-4.34834155 98.89473343 -7.07386624 98.98179585 -10.01196289 98.92602539 C-11.27077019 98.91965813 -11.27077019 98.91965813 -12.55500793 98.91316223 C-15.23499659 98.89637128 -17.91423284 98.85871894 -20.59399414 98.82055664 C-22.41104057 98.80551031 -24.22809879 98.79182182 -26.04516602 98.77954102 C-30.4992319 98.74646646 -34.95273546 98.69468177 -39.40649414 98.63305664 C-39.40649414 96.32305664 -39.40649414 94.01305664 -39.40649414 91.63305664 C-37.75649414 91.63305664 -36.10649414 91.63305664 -34.40649414 91.63305664 C-34.50148193 90.99432617 -34.59646973 90.3555957 -34.69433594 89.69750977 C-37.29249874 72.11943502 -39.59101941 54.51671707 -41.74316406 36.87915039 C-41.8464502 36.03775009 -41.94973633 35.19634979 -42.05615234 34.32945251 C-42.25017934 32.74743866 -42.4425851 31.16522479 -42.63305664 29.58277893 C-43.08582741 25.8932772 -43.66580797 22.27407936 -44.40649414 18.63305664 C-44.47182849 16.69654645 -44.49233717 14.75802803 -44.46899414 12.82055664 C-44.4599707 11.84473633 -44.45094727 10.86891602 -44.44165039 9.86352539 C-44.43004883 9.1274707 -44.41844727 8.39141602 -44.40649414 7.63305664 C-46.05649414 7.63305664 -47.70649414 7.63305664 -49.40649414 7.63305664 C-49.40649414 6.31305664 -49.40649414 4.99305664 -49.40649414 3.63305664 C-43.83875611 2.91537769 -38.27031929 2.20348536 -32.70117188 1.49682617 C-30.80871871 1.25588323 -28.91646215 1.01339064 -27.02441406 0.76928711 C-24.29681439 0.41766284 -21.56854438 0.07171141 -18.84008789 -0.27319336 C-18.00126572 -0.38256226 -17.16244354 -0.49193115 -16.29820251 -0.60461426 C-3.81361313 -2.16621892 -3.81361313 -2.16621892 0 0 Z " fill="#221D16" transform="translate(211.406494140625,46.366943359375)"/>
<path d="M0 0 C6.25811879 4.91063368 7.07481899 12.63686579 8.75 20.0625 C9.05292969 21.30966797 9.35585937 22.55683594 9.66796875 23.84179688 C13.7218377 41.1653302 13.7218377 41.1653302 13 48 C10.10380759 51.64487859 7.3425446 52.87444704 2.9375 54.25 C1.89464844 54.58515625 0.85179687 54.9203125 -0.22265625 55.265625 C-3 56 -3 56 -6 56 C-5.0432117 59.20879613 -4.08429132 62.41695136 -3.125 65.625 C-2.85558594 66.52863281 -2.58617187 67.43226562 -2.30859375 68.36328125 C-0.9407195 72.933983 0.45504108 77.48512004 2 82 C4.97 82.495 4.97 82.495 8 83 C8 85.31 8 87.62 8 90 C-0.25 90 -8.5 90 -17 90 C-17 87.69 -17 85.38 -17 83 C-16.01 83 -15.02 83 -14 83 C-14.38220703 81.88367188 -14.76441406 80.76734375 -15.15820312 79.6171875 C-19.16490234 67.91169488 -23.16322643 56.20336475 -27.15148926 44.49157715 C-27.68570404 42.92290243 -28.22010172 41.35428997 -28.75476074 39.7857666 C-30.13544532 35.73460814 -31.50833535 31.680908 -32.875 27.625 C-33.20177734 26.6659375 -33.52855469 25.706875 -33.86523438 24.71875 C-34.29932617 23.42324219 -34.29932617 23.42324219 -34.7421875 22.1015625 C-34.9882373 21.37275879 -35.23428711 20.64395508 -35.48779297 19.89306641 C-36 18 -36 18 -36 15 C-38.31 15.33 -40.62 15.66 -43 16 C-43.33 15.01 -43.66 14.02 -44 13 C-36.20815984 9.7668713 -28.30400865 6.94751859 -20.3125 4.25 C-19.12849609 3.83878906 -17.94449219 3.42757812 -16.72460938 3.00390625 C-4.77466444 -1.02627126 -4.77466444 -1.02627126 0 0 Z " fill="#231E16" transform="translate(146,55)"/>
<path d="M0 0 C0.87253418 0.0616333 1.74506836 0.1232666 2.64404297 0.18676758 C6.20520177 0.52004221 8.90379436 0.93202366 12.078125 2.625 C14.46215265 7.02628181 13.91189945 11.59320119 13.75 16.5 C13.73195313 17.53125 13.71390625 18.5625 13.6953125 19.625 C13.64822712 22.16761064 13.5824805 24.70833162 13.5 27.25 C14.16 27.25 14.82 27.25 15.5 27.25 C15.5 28.9 15.5 30.55 15.5 32.25 C8.57 31.92 1.64 31.59 -5.5 31.25 C-5.5 29.6 -5.5 27.95 -5.5 26.25 C-4.51 26.25 -3.52 26.25 -2.5 26.25 C-2.64019692 23.43711295 -2.78687955 20.62483115 -2.9375 17.8125 C-2.97681641 17.01005859 -3.01613281 16.20761719 -3.05664062 15.38085938 C-2.9054296 11.49760439 -2.9054296 11.49760439 -4.5 8.25 C-7.5 8.08333333 -7.5 8.08333333 -10.5 8.25 C-14.1699109 11.9199109 -12.67780992 24.2857431 -12.8125 29.1875 C-12.84988281 30.41339844 -12.88726562 31.63929687 -12.92578125 32.90234375 C-12.26516457 38.09636668 -9.78888183 40.24179157 -5.7734375 43.3828125 C-4.81695312 44.04023437 -3.86046875 44.69765625 -2.875 45.375 C0.34363845 47.59266778 2.31820238 48.97730357 4.5 52.25 C5.63528941 60.77204262 4.14040343 69.77202485 3.1875 78.25 C3.06995361 79.34844238 2.95240723 80.44688477 2.83129883 81.57861328 C2.7052124 82.6251709 2.57912598 83.67172852 2.44921875 84.75 C2.33924561 85.6884375 2.22927246 86.626875 2.1159668 87.59375 C1.19909719 91.54759118 -0.43642495 94.22008417 -3.34375 97.03540039 C-7.63766017 99.4541281 -12.69345369 98.71867453 -17.5 98.6875 C-19.1396875 98.7174707 -19.1396875 98.7174707 -20.8125 98.74804688 C-21.864375 98.74740234 -22.91625 98.74675781 -24 98.74609375 C-24.9590625 98.74794678 -25.918125 98.7497998 -26.90625 98.75170898 C-30.2883791 98.09750386 -31.46367732 96.99655085 -33.5 94.25 C-33.95410156 91.95996094 -33.95410156 91.95996094 -33.890625 89.484375 C-33.87773437 88.59492188 -33.86484375 87.70546875 -33.8515625 86.7890625 C-33.80128906 85.40847656 -33.80128906 85.40847656 -33.75 84 C-33.73195312 83.06414062 -33.71390625 82.12828125 -33.6953125 81.1640625 C-33.64825673 78.85832985 -33.58253713 76.55469055 -33.5 74.25 C-34.82 74.25 -36.14 74.25 -37.5 74.25 C-37.5 72.6 -37.5 70.95 -37.5 69.25 C-30.9 69.25 -24.3 69.25 -17.5 69.25 C-17.5 70.9 -17.5 72.55 -17.5 74.25 C-18.49 74.25 -19.48 74.25 -20.5 74.25 C-20.005 82.17 -20.005 82.17 -19.5 90.25 C-17.52 90.25 -15.54 90.25 -13.5 90.25 C-11.07571317 83.72001682 -10.9485229 77.65408143 -10.8125 70.75 C-10.71291992 68.93435547 -10.71291992 68.93435547 -10.61132812 67.08203125 C-10.33955437 60.57910735 -10.33955437 60.57910735 -13.41162109 55.16699219 C-15.71452754 53.63046203 -18.00130718 52.43390756 -20.5 51.25 C-27.1914527 46.86709461 -27.1914527 46.86709461 -28.5 44.25 C-28.63571688 41.39170883 -28.71273921 38.55900434 -28.73828125 35.69921875 C-28.746353 34.84826126 -28.75442474 33.99730377 -28.76274109 33.12055969 C-28.77658294 31.31745441 -28.78730465 29.51432291 -28.79516602 27.71118164 C-28.81236789 24.95863933 -28.85625049 22.20730162 -28.90039062 19.45507812 C-28.91051863 17.70313383 -28.9190344 15.95117933 -28.92578125 14.19921875 C-28.94328934 13.37822189 -28.96079742 12.55722504 -28.97883606 11.71134949 C-28.96364043 7.69125548 -28.8055325 5.73150102 -26.59838867 2.25317383 C-20.24793114 -3.80913031 -8.13629628 -0.68574204 0 0 Z " fill="#241F16" transform="translate(255.5,46.75)"/>
<path d="M0 0 C9.07626495 1.74829694 18.05632425 3.65166056 27 6 C26.125 12.75 26.125 12.75 25 15 C22.03 14.67 19.06 14.34 16 14 C15.92523438 14.62261719 15.85046875 15.24523437 15.7734375 15.88671875 C14.69801661 23.446295 12.76604087 30.55287622 10.60180664 37.86083984 C7.68742063 47.82289954 5.24203707 57.89626654 2.80419922 67.98339844 C1.21918757 74.48908003 -0.43724145 80.80336091 -3 87 C-1.35 87 0.3 87 2 87 C2 89.31 2 91.62 2 94 C-6.25 94 -14.5 94 -23 94 C-23 91.69 -23 89.38 -23 87 C-20.03 87 -17.06 87 -14 87 C-13.90565674 86.35200439 -13.81131348 85.70400879 -13.71411133 85.03637695 C-12.33495535 76.16236783 -10.34319238 67.47146937 -8.28707886 58.73620605 C-7.27136436 54.41857933 -6.26913567 50.09782017 -5.265625 45.77734375 C-5.06883652 44.93128571 -4.87204803 44.08522766 -4.66929626 43.21353149 C-3.04837245 36.23508927 -1.46733382 29.24906201 0.0625 22.25 C0.36764526 20.86977661 0.36764526 20.86977661 0.67895508 19.46166992 C0.94808716 18.21994019 0.94808716 18.21994019 1.22265625 16.953125 C1.37484619 16.25348633 1.52703613 15.55384766 1.68383789 14.83300781 C2.08498642 12.817288 2.08498642 12.817288 2 10 C0.68 9.67 -0.64 9.34 -2 9 C-1.34 6.03 -0.68 3.06 0 0 Z " fill="#231E16" transform="translate(284,51)"/>
<path d="M0 0 C15.18 0 30.36 0 46 0 C46 7.99413093 45.40781625 11.66376414 41 18 C35.79046895 23.10450018 30.07439609 26.26809846 22.6875 26.375 C16.13943165 26.21679164 11.8260502 24.62498734 7.0234375 20.1640625 C0.82749983 13.50916649 0 9.31072487 0 0 Z " fill="#FCFCFC" transform="translate(187,302)"/>
<path d="M0 0 C3.96 0 7.92 0 12 0 C12.16628378 7.84859434 11.63648861 15.37641996 10.68981934 23.16442871 C8.21055454 43.6570456 6.26153786 64.20763214 4.25 84.75 C4.08806103 86.40189791 3.92610429 88.05379407 3.76412964 89.70568848 C2.83962334 99.13682122 1.9182301 108.56825397 1 118 C0.34 118 -0.32 118 -1 118 C-1.12531165 88.57682483 -0.97257719 59.16899426 -0.5 29.75 C-0.48804218 29.00529701 -0.47608437 28.26059402 -0.46376419 27.49332428 C-0.31598581 18.32876262 -0.16074796 9.16434407 0 0 Z " fill="#F2F2F2" transform="translate(213,161)"/>
<path d="M0 0 C3.96 0 7.92 0 12 0 C12.1755555 8.97901011 12.34224513 17.95816041 12.5 26.9375 C12.51187725 27.61321926 12.5237545 28.28893852 12.53599167 28.98513412 C13.05339169 58.65865758 13.11389257 88.32207472 13 118 C12.67 118 12.34 118 12 118 C9.20317901 95.74626957 6.74966557 73.47528 4.53869629 51.15631104 C3.93129871 45.0303803 3.31843926 38.90499569 2.7043972 32.77972794 C2.49411382 30.67555047 2.28588766 28.57117745 2.07795715 26.46676636 C1.95079819 25.19237701 1.82363922 23.91798767 1.69262695 22.60498047 C1.58255814 21.49428192 1.47248932 20.38358337 1.35908508 19.23922729 C1.10039937 16.90568053 0.7960006 14.57703974 0.46281433 12.25296021 C-0.12694941 8.10771695 -0.06433833 4.18199142 0 0 Z " fill="#F9F9F8" transform="translate(194,161)"/>
<path d="M0 0 C3.3 0 6.6 0 10 0 C12.57107865 19.55081438 15.00899948 39.11623405 17.38781738 58.6913147 C18.64818106 69.06185526 19.90863738 79.43166314 21.2734375 89.7890625 C21.3692511 90.51804749 21.4650647 91.24703247 21.56378174 91.99810791 C21.99673857 95.28421911 22.435514 98.56931242 22.8828125 101.85351562 C23.60573615 107.28479112 24.20651299 112.51946284 24 118 C23.01 118 22.02 118 21 118 C15.92439167 91.17332205 11.07868812 64.31177621 6.41455078 37.41040039 C6.00977168 35.08083429 5.60467054 32.75132412 5.19921875 30.421875 C5.00732971 29.31903671 4.81544067 28.21619843 4.61773682 27.0799408 C3.35969045 19.90469436 1.99944382 12.7605922 0.49145508 5.63378906 C0 3 0 3 0 0 Z " fill="#F7F6F6" transform="translate(176,161)"/>
<path d="M0 0 C3.63 0 7.26 0 11 0 C5.05327982 17.50978719 -1.19240378 34.90192731 -7.53955078 52.26977539 C-8.23739359 54.17981778 -8.93514636 56.08989307 -9.6328125 58 C-9.98417267 58.96195786 -10.33553284 59.92391571 -10.69754028 60.9150238 C-13.40854975 68.34957399 -16.08021312 75.79777201 -18.7421875 83.25 C-19.90756673 86.50401641 -21.07346656 89.75784586 -22.23950195 93.0116272 C-22.99480901 95.12414439 -23.74758843 97.23756706 -24.49780273 99.35189819 C-25.54161106 102.29292306 -26.59408852 105.23070943 -27.6484375 108.16796875 C-27.95917206 109.05117798 -28.26990662 109.93438721 -28.59005737 110.84436035 C-28.87922028 111.64490845 -29.16838318 112.44545654 -29.46630859 113.27026367 C-29.71561127 113.97028 -29.96491394 114.67029633 -30.22177124 115.39152527 C-31 117 -31 117 -33 118 C-32.41284117 111.54125284 -30.85333066 105.78698726 -28.875 99.625 C-26.22239503 91.15025664 -23.7716963 82.64710722 -21.5 74.0625 C-19.07086684 64.9099575 -16.52834249 55.80281668 -13.84912109 46.72045898 C-11.99177328 40.41737584 -10.16828904 34.10560181 -8.37109375 27.78515625 C-8.144254 26.98789627 -7.91741425 26.19063629 -7.68370056 25.36921692 C-6.77055188 22.15853101 -5.85785007 18.94772569 -4.94882202 15.73587036 C-4.31390264 13.49270743 -3.67665664 11.25021636 -3.0390625 9.0078125 C-2.84771225 8.32876358 -2.656362 7.64971466 -2.45921326 6.9500885 C-1.11342346 2.22684693 -1.11342346 2.22684693 0 0 Z " fill="#F6F5F5" transform="translate(267,161)"/>
<path d="M0 0 C3.3 0 6.6 0 10 0 C18.84458489 41.80942218 18.84458489 41.80942218 22.74707031 62.4296875 C24.1316448 69.6857051 25.60121025 76.91688878 27.14453125 84.140625 C27.32921463 85.00672897 27.51389801 85.87283295 27.70417786 86.7651825 C28.61414322 91.02556631 29.53207879 95.28403273 30.46118164 99.5402832 C30.79460049 101.09062167 31.12786023 102.64099436 31.4609375 104.19140625 C31.61685867 104.89311951 31.77277985 105.59483276 31.9334259 106.31781006 C32.77803306 110.2792712 33.1550158 113.95188436 33 118 C32.34 118 31.68 118 31 118 C30.43703502 115.89595769 29.87467147 113.79175446 29.3125 111.6875 C29.13243408 111.01380371 28.95236816 110.34010742 28.7668457 109.64599609 C27.78981579 105.98411636 26.82064457 102.32043638 25.8671875 98.65234375 C23.55192742 89.75917577 21.13422189 80.90300164 18.625 72.0625 C15.72445432 61.82518694 13.10364436 51.53455477 10.56616211 41.2019043 C8.55067756 33.04931204 6.36122589 24.96632358 3.95288086 16.92089844 C2.2966286 11.32556231 1.08114425 5.73564788 0 0 Z " fill="#F4F4F4" transform="translate(159,161)"/>
<path d="M0 0 C2.97 0 5.94 0 9 0 C8.44652541 6.50495432 7.21609535 12.33123725 5.3125 18.5625 C3.01195107 26.33311928 0.92283906 34.1275436 -1 42 C-3.0858027 50.51032057 -5.36657359 58.93664401 -7.8203125 67.34765625 C-9.51705872 73.20187488 -11.05438012 79.07906674 -12.5 85 C-14.272671 92.25163819 -16.1997705 99.44673844 -18.25 106.625 C-18.50845703 107.5325 -18.76691406 108.44 -19.03320312 109.375 C-20.86825284 115.73650568 -20.86825284 115.73650568 -22 118 C-22.66 118 -23.32 118 -24 118 C-17.09197991 78.44880848 -8.84952412 39.16016378 0 0 Z " fill="#F6F6F5" transform="translate(250,161)"/>
<path d="M0 0 C2.97 0 5.94 0 9 0 C8.28763098 6.12637355 7.32453919 12.17747222 6.25 18.25 C6.07594131 19.24124878 5.90188263 20.23249756 5.72254944 21.25378418 C5.15085181 24.50296671 4.57569407 27.75152334 4 31 C3.80324677 32.11383057 3.60649353 33.22766113 3.40377808 34.37524414 C-0.46145855 56.24089418 -4.52391444 78.06769532 -8.65731812 99.8840332 C-9.79943737 105.91769501 -10.9206193 111.95475266 -12 118 C-12.99 118 -13.98 118 -15 118 C-14.44038133 108.87727296 -13.56849759 99.86445429 -12.3125 90.8125 C-12.14169922 89.55493896 -11.97089844 88.29737793 -11.79492188 87.00170898 C-10.10626013 74.59510491 -8.35249422 62.19725317 -6.61190796 49.79785156 C-4.28482025 33.21374629 -2.08892098 16.61573503 0 0 Z " fill="#F6F6F6" transform="translate(233,161)"/>
<path d="M0 0 C3.3 0 6.6 0 10 0 C10.35191406 1.2375 10.70382813 2.475 11.06640625 3.75 C14.69437103 16.48838132 18.38231222 29.20847082 22.10009766 41.92089844 C23.31185543 46.06704304 24.52013249 50.21419898 25.72851562 54.36132812 C27.95859211 62.01355135 30.19104857 69.66506639 32.4375 77.3125 C32.71847534 78.27289185 32.71847534 78.27289185 33.00512695 79.25268555 C34.33959418 83.80014347 35.70784263 88.33665761 37.0859375 92.87109375 C37.45275635 94.08692139 37.8195752 95.30274902 38.19750977 96.55541992 C38.92936472 98.98046066 39.66665759 101.40386828 40.40991211 103.82543945 C40.74514893 104.94007568 41.08038574 106.05471191 41.42578125 107.203125 C41.72911377 108.19989258 42.03244629 109.19666016 42.3449707 110.22363281 C42.98305738 112.92818803 43.12730861 115.23395979 43 118 C41.12956989 115.19435484 40.13542231 112.90848267 39.00732422 109.75805664 C38.61811295 108.67752014 38.22890167 107.59698364 37.82789612 106.48370361 C37.40773727 105.30443298 36.98757843 104.12516235 36.5546875 102.91015625 C35.87634851 101.02238013 35.19800856 99.13460436 34.51962757 97.24684334 C33.5503047 94.54619041 32.5847666 91.84418922 31.61896133 89.14227676 C30.37860597 85.67480857 29.13402102 82.20886038 27.8894043 78.74291992 C27.64145205 78.05242711 27.39349981 77.3619343 27.13803387 76.65051746 C26.63628828 75.25330918 26.13452303 73.85610796 25.63273811 72.4589138 C24.8769611 70.35395746 24.12172413 68.24880794 23.36656189 66.14363098 C20.29794311 57.59228125 17.20728538 49.0493272 14.08984375 40.515625 C13.71954041 39.50145004 13.34923706 38.48727509 12.9677124 37.44236755 C11.5837922 33.65396472 10.19917548 29.86583016 8.80926514 26.07962036 C2.48887809 8.860406 2.48887809 8.860406 0 0 Z " fill="#F4F4F4" transform="translate(142,161)"/>
<path d="M0 0 C15.51 0 31.02 0 47 0 C47 4.29 47 8.58 47 13 C31.49 13 15.98 13 0 13 C0 8.71 0 4.42 0 0 Z " fill="#CD241C" transform="translate(186,284)"/>
<path d="M0 0 C3.56015884 4.56085214 4.95892191 10.37415514 6.6875 15.8125 C7.16799805 17.25206055 7.16799805 17.25206055 7.65820312 18.72070312 C9.46119017 24.35263494 10.53367449 29.08229302 10 35 C7.23489564 38.29685519 4.09880843 38.37675653 0 39 C-3.3802437 31.47623177 -6.17997893 23.81162525 -8.8125 16 C-9.12646729 15.08001221 -9.44043457 14.16002441 -9.76391602 13.2121582 C-10.05451904 12.337771 -10.34512207 11.46338379 -10.64453125 10.5625 C-10.90596924 9.78003906 -11.16740723 8.99757813 -11.43676758 8.19140625 C-12 6 -12 6 -12 2 C-7.88134787 0.43098967 -4.41108904 -0.68616941 0 0 Z " fill="#FAF000" transform="translate(137,65)"/>
<path d="M0 0 C7.30065838 -0.48671056 7.30065838 -0.48671056 10.10058594 1.46191406 C12.89315284 5.19347261 12.57499829 8.45191855 12.53125 13 C12.5350769 13.87269531 12.53890381 14.74539062 12.54284668 15.64453125 C12.5455649 17.48699092 12.53820994 19.32948924 12.52148438 21.171875 C12.50007248 23.99045934 12.52128801 26.80649485 12.546875 29.625 C12.54423171 31.41667229 12.53910669 33.20834299 12.53125 35 C12.53934692 35.84175781 12.54744385 36.68351562 12.55578613 37.55078125 C12.49562882 41.30859534 12.41124999 43.3875596 10.27929688 46.5625 C7.61159909 48.2449555 6.09762047 48.34418005 3 48 C2.57051903 41.96784835 2.14333427 35.93554008 1.71826172 29.90307617 C1.57338295 27.85159936 1.42788061 25.80016648 1.28173828 23.7487793 C1.0715947 20.79747714 0.86370583 17.84602341 0.65625 14.89453125 C0.59062866 13.97976517 0.52500732 13.06499908 0.45739746 12.12251282 C0.17481355 8.0739202 -0.08853707 4.06163825 0 0 Z " fill="#F1E701" transform="translate(185,52)"/>
<path d="M0 0 C7.44890459 -0.36633957 7.44890459 -0.36633957 9.73901367 1.15600586 C11.49963649 3.73063977 11.37235793 5.58889859 11.36328125 8.69140625 C11.36263672 9.80064453 11.36199219 10.90988281 11.36132812 12.05273438 C11.34521484 13.21095703 11.32910156 14.36917969 11.3125 15.5625 C11.31572266 16.72458984 11.31894531 17.88667969 11.32226562 19.08398438 C11.26691946 27.73308054 11.26691946 27.73308054 9 30 C5.375 30.125 5.375 30.125 2 30 C0.93719496 23.70354997 0.67888105 17.43733393 0.4375 11.0625 C0.39431641 9.99708984 0.35113281 8.93167969 0.30664062 7.83398438 C0.20125511 5.22276557 0.09912912 2.61146254 0 0 Z " fill="#F3E901" transform="translate(189,108)"/>
<path d="M0 0 C-1.08094328 12.10656475 -5.64091566 20.54820316 -14.9375 28.5625 C-15.948125 29.366875 -16.95875 30.17125 -18 31 C-19.20436275 15.41975174 -19.20436275 15.41975174 -15.0625 9.875 C-11.45334073 6.03750617 -5.56860919 0 0 0 Z " fill="#008E3D" transform="translate(269,354)"/>
<path d="M0 0 C0 4.07592821 -1.16907528 5.09830216 -4 8 C-13.66634734 14.5036254 -24.76884049 14.29129809 -36 14 C-26.97155087 3.0368832 -13.22087268 1.57654758 0 0 Z " fill="#F1E701" transform="translate(175,391)"/>
<path d="M0 0 C7.35930929 3.43312691 12.92358618 6.68250307 17 14 C17.59022592 16.95876781 17.69385741 19.86371547 17.75 22.875 C17.77964844 23.65875 17.80929688 24.4425 17.83984375 25.25 C17.909946 27.16612807 17.95730658 29.08306537 18 31 C8.72883133 25.32377428 2.95485789 16.42258965 0 6 C-0.25 2.375 -0.25 2.375 0 0 Z " fill="#F9EF00" transform="translate(157,360)"/>
<path d="M0 0 C-1.76203688 5.44629581 -4.94476737 9.23021635 -9.25 12.9375 C-14.59394928 15.00220768 -20.54832479 13.23102344 -26 12 C-23.74693999 6.67458542 -20.62496142 2.38419693 -15.25 0.125 C-10.50631119 -1.40813137 -4.58532865 -2.29266433 0 0 Z " fill="#F3F3F3" transform="translate(289,370)"/>
<path d="M0 0 C13.23388113 0.33209237 24.83515078 1.5341662 35 11 C35 11.33 35 11.66 35 12 C21.37369865 12.49903036 11.86981841 12.69331044 1.21484375 3.3671875 C0 2 0 2 0 0 Z " fill="#008E3D" transform="translate(251,386)"/>
<path d="M0 0 C15.51 0 31.02 0 47 0 C47 1.65 47 3.3 47 5 C31.49 5 15.98 5 0 5 C0 3.35 0 1.7 0 0 Z " fill="#F6F0F0" transform="translate(186,292)"/>
<path d="M0 0 C7.58777687 -0.46219961 14.65676828 -0.71211499 21 4 C23.03974102 6.50897721 24.5955719 9.09233982 26 12 C16.10878661 15.71548117 16.10878661 15.71548117 11.375 14.109375 C6.38632412 10.9071844 3.01851467 7.06331493 0 2 C0 1.34 0 0.68 0 0 Z " fill="#F7EE00" transform="translate(137,376)"/>
<path d="M0 0 C3 -0.375 3 -0.375 6 0 C8.56212287 3.84318431 8.33108539 7.04693955 8.3125 11.5 C8.32861328 12.27214844 8.34472656 13.04429687 8.36132812 13.83984375 C8.36625722 19.52801972 8.36625722 19.52801972 6.63745117 21.75585938 C5 23 5 23 2.4375 22.8125 C0 22 0 22 -2 20 C-2.19896281 17.14722446 -2.27824931 14.41332628 -2.25 11.5625 C-2.25773438 10.78583984 -2.26546875 10.00917969 -2.2734375 9.20898438 C-2.25996806 5.29947832 -2.21368645 3.32052968 0 0 Z " fill="#CA241C" transform="translate(224,368)"/>
<path d="M0 0 C2.5 0.25 2.5 0.25 4.5 2.25 C4.75878906 4.18945312 4.75878906 4.18945312 4.765625 6.53125 C4.76820313 7.37300781 4.77078125 8.21476562 4.7734375 9.08203125 C4.76570312 9.96246094 4.75796875 10.84289062 4.75 11.75 C4.75773438 12.63042969 4.76546875 13.51085937 4.7734375 14.41796875 C4.77085937 15.25972656 4.76828125 16.10148437 4.765625 16.96875 C4.76336914 17.74154297 4.76111328 18.51433594 4.75878906 19.31054688 C4.5 21.25 4.5 21.25 2.5 23.25 C0 23.5625 0 23.5625 -2.5 23.25 C-4.53875926 20.1918611 -4.75490139 19.53939991 -4.765625 16.08984375 C-4.76820313 15.29642578 -4.77078125 14.50300781 -4.7734375 13.68554688 C-4.76570312 12.86119141 -4.75796875 12.03683594 -4.75 11.1875 C-4.75773438 10.35927734 -4.76546875 9.53105469 -4.7734375 8.67773438 C-4.77085937 7.88560547 -4.76828125 7.09347656 -4.765625 6.27734375 C-4.76336914 5.55281006 -4.76111328 4.82827637 -4.75878906 4.08178711 C-4.31704303 0.95497533 -3.00546445 0.30054644 0 0 Z " fill="#D6241C" transform="translate(212.5,367.75)"/>
<path d="M0 0 C2.7633734 2.7633734 2.28850252 4.65547443 2.32226562 8.42773438 C2.31904297 9.25595703 2.31582031 10.08417969 2.3125 10.9375 C2.32861328 11.76185547 2.34472656 12.58621094 2.36132812 13.43554688 C2.36197266 14.22896484 2.36261719 15.02238281 2.36328125 15.83984375 C2.36775269 16.92833618 2.36775269 16.92833618 2.37231445 18.03881836 C1.89303532 20.56344085 1.04086705 21.47762186 -1 23 C-5.42105263 22.57894737 -5.42105263 22.57894737 -7 21 C-7.08669432 19.5112814 -7.10703494 18.018555 -7.09765625 16.52734375 C-7.09443359 15.62822266 -7.09121094 14.72910156 -7.08789062 13.80273438 C-7.07951172 12.85720703 -7.07113281 11.91167969 -7.0625 10.9375 C-7.05798828 9.98810547 -7.05347656 9.03871094 -7.04882812 8.06054688 C-7.0370011 5.70696935 -7.02052025 3.35351523 -7 1 C-4.48718205 -0.25640898 -2.78302919 -0.20872719 0 0 Z " fill="#D2241C" transform="translate(201,368)"/>
<path d="M0 0 C2.5 0.25 2.5 0.25 4.5 2.25 C4.94360072 5.20852109 4.82412652 8.19948451 4.8125 11.1875 C4.82861328 12.01185547 4.84472656 12.83621094 4.86132812 13.68554688 C4.86197266 14.47896484 4.86261719 15.27238281 4.86328125 16.08984375 C4.86775269 17.17833618 4.86775269 17.17833618 4.87231445 18.28881836 C4.39303532 20.81344085 3.54086705 21.72762186 1.5 23.25 C-2.92105263 22.82894737 -2.92105263 22.82894737 -4.5 21.25 C-4.74966567 18.1117655 -4.68521791 14.95950387 -4.6875 11.8125 C-4.69974609 10.92755859 -4.71199219 10.04261719 -4.72460938 9.13085938 C-4.72654297 8.28458984 -4.72847656 7.43832031 -4.73046875 6.56640625 C-4.73457764 5.78724854 -4.73868652 5.00809082 -4.74291992 4.20532227 C-4.34547814 1.00621547 -3.09403124 0.30940312 0 0 Z " fill="#D5241C" transform="translate(241.5,367.75)"/>
<path d="M0 0 C2.5 0.25 2.5 0.25 4.5 2.25 C4.75878906 4.18945312 4.75878906 4.18945312 4.765625 6.53125 C4.76820313 7.37300781 4.77078125 8.21476562 4.7734375 9.08203125 C4.76570312 9.96246094 4.75796875 10.84289062 4.75 11.75 C4.75773438 12.63042969 4.76546875 13.51085937 4.7734375 14.41796875 C4.77085937 15.25972656 4.76828125 16.10148437 4.765625 16.96875 C4.76336914 17.74154297 4.76111328 18.51433594 4.75878906 19.31054688 C4.5 21.25 4.5 21.25 2.5 23.25 C-0.5625 23 -0.5625 23 -3.5 22.25 C-5.20913373 18.83173253 -4.68458479 15.01645237 -4.6875 11.25 C-4.69974609 10.41726563 -4.71199219 9.58453125 -4.72460938 8.7265625 C-4.72654297 7.92992187 -4.72847656 7.13328125 -4.73046875 6.3125 C-4.73457764 5.58160156 -4.73868652 4.85070312 -4.74291992 4.09765625 C-4.32994346 0.95654481 -3.01346359 0.30134636 0 0 Z " fill="#D3241C" transform="translate(183.5,367.75)"/>
<path d="M0 0 C0.66 0 1.32 0 2 0 C3.14397482 4.35874181 4.28317467 8.71869295 5.41796875 13.07983398 C5.80467865 14.56324927 6.19269087 16.04632568 6.58203125 17.52905273 C7.14145196 19.66041711 7.69617699 21.79295646 8.25 23.92578125 C8.42499023 24.58838455 8.59998047 25.25098785 8.78027344 25.93367004 C9.49911058 28.71814699 10 31.1090539 10 34 C6.52674819 35.1577506 3.63932552 35.06866652 0 35 C1.25397873 27.98305518 2.57584088 20.98443993 4 14 C2.02 14.66 0.04 15.32 -2 16 C-1.85936865 13.70800823 -1.71234057 11.41640814 -1.5625 9.125 C-1.48128906 7.84882813 -1.40007812 6.57265625 -1.31640625 5.2578125 C-1 2 -1 2 0 0 Z " fill="#03843A" transform="translate(397,218)"/>
<path d="M0 0 C6.34339651 1.80610595 11.56938255 4.25627734 17 8 C13.05488039 10.65112038 9.00619381 10.29626525 4.4375 10.25 C3.66986328 10.25773437 2.90222656 10.26546875 2.11132812 10.2734375 C-1.77207821 10.25989467 -3.70024677 10.19983549 -7 8 C-7 7.34 -7 6.68 -7 6 C-5.01310269 4.64721885 -3.01254782 3.31431695 -1 2 C-0.67 1.34 -0.34 0.68 0 0 Z " fill="#03883C" transform="translate(289,380)"/>
<path d="M0 0 C9.39518805 5.14076327 9.39518805 5.14076327 10.94921875 9.91796875 C11.31466797 11.53638672 11.31466797 11.53638672 11.6875 13.1875 C12.06455078 14.81751953 12.06455078 14.81751953 12.44921875 16.48046875 C12.63097656 17.31191406 12.81273437 18.14335937 13 19 C5.24569171 18.33723861 5.24569171 18.33723861 2.51171875 15.40234375 C-0.23692914 10.37481689 -0.46879309 5.62551706 0 0 Z " fill="#F3E901" transform="translate(141,353)"/>
<path d="M0 0 C1.29315061 0.95632999 2.58446853 1.91513851 3.875 2.875 C4.59429687 3.40867187 5.31359375 3.94234375 6.0546875 4.4921875 C9.93073062 7.49651008 10.40844268 9.3138294 11.125 14.125 C11.29257813 15.22070312 11.46015625 16.31640625 11.6328125 17.4453125 C11.75398437 18.28835938 11.87515625 19.13140625 12 20 C8.7698627 19.79007493 5.95757635 19.35293386 3 18 C-0.64463077 12.75803105 -0.29113679 6.11387249 0 0 Z " fill="#EFE501" transform="translate(125,344)"/>
<path d="M0 0 C1.921875 1.19140625 1.921875 1.19140625 3.75 2.5625 C4.67039063 3.24505859 4.67039063 3.24505859 5.609375 3.94140625 C6.06828125 4.29074219 6.5271875 4.64007813 7 5 C5.27599535 7.16311438 4.42444206 7.93875073 1.63989258 8.34057617 C0.73392334 8.32486572 -0.1720459 8.30915527 -1.10546875 8.29296875 C-2.08837891 8.28330078 -3.07128906 8.27363281 -4.08398438 8.26367188 C-5.10814453 8.23853516 -6.13230469 8.21339844 -7.1875 8.1875 C-8.22326172 8.17396484 -9.25902344 8.16042969 -10.32617188 8.14648438 C-12.88463699 8.11111389 -15.4420578 8.06175544 -18 8 C-15.01099781 4.8264915 -12.45049163 2.36977897 -8.4375 0.625 C-7.69371094 0.28726562 -6.94992188 -0.05046875 -6.18359375 -0.3984375 C-3.61661044 -1.10562074 -2.4654352 -0.95960053 0 0 Z " fill="#F0E601" transform="translate(138,388)"/>
<path d="M0 0 C0.33 0.99 0.66 1.98 1 3 C3.00016466 4.20882096 3.00016466 4.20882096 5 5 C4.01 6.485 4.01 6.485 3 8 C-4.46460728 8.99599495 -11.79092747 7.95500272 -19 6 C-13.96384276 1.28875613 -6.92477336 -2.45717764 0 0 Z " fill="#EBE101" transform="translate(121,379)"/>
<path d="M0 0 C-0.40063871 6.31005961 -0.94313991 12.86892907 -5 18 C-7.87906688 19.10648651 -9.84778391 19.05253693 -13 19 C-12.06221883 8.24422416 -12.06221883 8.24422416 -7.5625 4.4375 C-6.39916962 3.59075629 -5.21235013 2.77493204 -4 2 C-1 0 -1 0 0 0 Z " fill="#018D3D" transform="translate(286,346)"/>
<path d="M0 0 C1.703125 1.75 1.703125 1.75 3.25 4 C3.77078125 4.7425 4.2915625 5.485 4.828125 6.25 C5.21484375 6.8275 5.6015625 7.405 6 8 C4.34784709 9.65215291 2.46179221 9.21095636 0.1875 9.25 C-6.1702796 9.21662583 -11.92795396 7.78028575 -18 6 C-15.10928596 3.61114603 -12.59706105 2.34884838 -9 1.3125 C-7.7315625 0.93544922 -7.7315625 0.93544922 -6.4375 0.55078125 C-4 0 -4 0 0 0 Z " fill="#EFE501" transform="translate(103,367)"/>
<path d="M0 0 C4.36292948 0.77225832 8.10998286 2.14874143 12.0625 4.125 C8.22396217 8.53086889 3.15057086 8.89040237 -2.45703125 9.31640625 C-6.86337091 9.42318346 -6.86337091 9.42318346 -8.9375 9.125 C-9.5975 8.465 -10.2575 7.805 -10.9375 7.125 C-8.03596468 2.39526153 -5.85209232 -0.50926605 0 0 Z " fill="#02893C" transform="translate(327.9375,360.875)"/>
<path d="M0 0 C0.31985731 6.71700347 -0.5206176 11.75726932 -3 18 C-6.96 18.495 -6.96 18.495 -11 19 C-11.23641203 13.85567414 -11.30817581 9.61450488 -7.96484375 5.48828125 C-1.74741921 0 -1.74741921 0 0 0 Z " fill="#018D3D" transform="translate(301,338)"/>
<path d="M0 0 C4.23170562 1.47047686 8.18240273 3.51289432 12.125 5.625 C12.125 6.285 12.125 6.945 12.125 7.625 C7.26770355 8.59799156 2.6749375 8.74538805 -2.25 8.6875 C-2.98605469 8.68298828 -3.72210938 8.67847656 -4.48046875 8.67382812 C-6.27868158 8.66215142 -8.07685197 8.64422011 -9.875 8.625 C-9.875 5.24665678 -9.5447134 4.73034552 -7.375 2.3125 C-4.51193885 -0.39598273 -4.21661567 -0.40805958 0 0 Z " fill="#058D3F" transform="translate(310.875,371.375)"/>
<path d="M0 0 C1.12894876 0.93274109 2.25300876 1.87140122 3.375 2.8125 C4.00148438 3.33457031 4.62796875 3.85664063 5.2734375 4.39453125 C8.7418226 7.61965857 9.30321147 10.12882911 9.625 14.6875 C9.69976562 15.68136719 9.77453125 16.67523438 9.8515625 17.69921875 C9.90054688 18.45847656 9.94953125 19.21773438 10 20 C6.26512223 19.5020163 4.18762365 19.12508244 1 17 C-0.18681726 13.43954823 -0.09689832 10.56191663 -0.0625 6.8125 C-0.05347656 5.54019531 -0.04445313 4.26789063 -0.03515625 2.95703125 C-0.02355469 1.98121094 -0.01195313 1.00539063 0 0 Z " fill="#F2E801" transform="translate(111,335)"/>
<path d="M0 0 C2.21301273 2.04730405 3.71855107 4.27692103 5 7 C5 7.66 5 8.32 5 9 C-3.38785271 9.83507383 -9.48641103 7.61478507 -17 4 C-12.63777305 -0.36222695 -5.83711656 -0.84732337 0 0 Z " fill="#EEE401" transform="translate(87,355)"/>
<path d="M0 0 C2.31 0 4.62 0 7 0 C7.33 2.31 7.66 4.62 8 7 C3.25 5.125 3.25 5.125 1 4 C1.33 10.27 1.66 16.54 2 23 C-0.64 22.67 -3.28 22.34 -6 22 C-5.38153536 19.08180761 -4.75551865 16.16558978 -4.125 13.25 C-3.95097656 12.425 -3.77695312 11.6 -3.59765625 10.75 C-3.42363281 9.95078125 -3.24960937 9.1515625 -3.0703125 8.328125 C-2.91320801 7.5949707 -2.75610352 6.86181641 -2.59423828 6.10644531 C-1.97058111 3.89571644 -1.08856601 2.01763516 0 0 Z " fill="#03843A" transform="translate(29,217)"/>
<path d="M0 0 C0.02699725 2.27076842 0.04639453 4.54162821 0.0625 6.8125 C0.07410156 8.07707031 0.08570313 9.34164063 0.09765625 10.64453125 C0 14 0 14 -1 17 C-2.84765625 17.94921875 -2.84765625 17.94921875 -5.0625 18.6875 C-5.79597656 18.93886719 -6.52945312 19.19023437 -7.28515625 19.44921875 C-7.85105469 19.63097656 -8.41695313 19.81273437 -9 20 C-10.22326112 9.80615735 -10.22326112 9.80615735 -7.25390625 5.421875 C-1.78327338 0 -1.78327338 0 0 0 Z " fill="#018B3C" transform="translate(315,329)"/>
<path d="M0 0 C4.72165386 0.28084187 8.99527756 1.79677461 13.375 3.5 C9.33672116 7.53827884 2.4018614 9.19639384 -3.1953125 9.7578125 C-5.00723579 9.75131815 -6.81840215 9.63896907 -8.625 9.5 C-7.97830586 8.15686601 -7.30596422 6.82608822 -6.625 5.5 C-6.25375 4.5925 -5.8825 3.685 -5.5 2.75 C-3.625 0.5 -3.625 0.5 0 0 Z " fill="#089042" transform="translate(342.625,348.5)"/>
<path d="M0 0 C6.92150433 6.73935948 6.92150433 6.73935948 7.1953125 11.13671875 C7.17210938 12.30847656 7.14890625 13.48023438 7.125 14.6875 C7.10695313 15.86699219 7.08890625 17.04648437 7.0703125 18.26171875 C7.03550781 19.61716797 7.03550781 19.61716797 7 21 C4.36 19.68 1.72 18.36 -1 17 C-1.02684679 14.35409986 -1.04676357 11.70846904 -1.0625 9.0625 C-1.07087891 8.30775391 -1.07925781 7.55300781 -1.08789062 6.77539062 C-1.09652441 4.85005687 -1.05224333 2.92464419 -1 1 C-0.67 0.67 -0.34 0.34 0 0 Z " fill="#F1E801" transform="translate(99,325)"/>
<path d="M0 0 C2 1 2 1 3.125 4.0625 C4.17829241 8.25840254 4.56686372 11.67766415 4 16 C-0.6 20 -0.6 20 -4 20 C-5.9333722 8.51462062 -5.9333722 8.51462062 -2.5625 3.25 C-1.73763806 2.14419053 -0.89347596 1.05114819 0 0 Z " fill="#02853A" transform="translate(337,308)"/>
<path d="M0 0 C1.04285156 0.02835937 2.08570313 0.05671875 3.16015625 0.0859375 C4.20042969 0.09882813 5.24070312 0.11171875 6.3125 0.125 C9.11421162 0.44841906 10.830087 1.01963072 13.22265625 2.4609375 C6.7006213 6.95705423 0.29023981 10.4609375 -7.77734375 10.4609375 C-4.92826812 0.81791229 -4.92826812 0.81791229 0 0 Z " fill="#0F9147" transform="translate(356.77734375,334.5390625)"/>
<path d="M0 0 C1.89551022 -0.05441656 3.7914792 -0.09298035 5.6875 -0.125 C6.74324219 -0.14820313 7.79898438 -0.17140625 8.88671875 -0.1953125 C12.12148259 0.00762124 14.19426242 0.37978534 17 2 C18.14453125 4.1640625 18.14453125 4.1640625 18.8125 6.625 C19.04582031 7.44226563 19.27914062 8.25953125 19.51953125 9.1015625 C19.67808594 9.72804688 19.83664063 10.35453125 20 11 C12.83053081 10.84067846 7.6120569 7.26255731 2 3 C1.34 2.01 0.68 1.02 0 0 Z " fill="#ECE201" transform="translate(44,325)"/>
<path d="M0 0 C0 5.61 0 11.22 0 17 C-6 20 -6 20 -8 20 C-8.56721931 13.69756322 -9.03015035 8.52005727 -5.125 3.25 C-2.3902439 0 -2.3902439 0 0 0 Z " fill="#02893C" transform="translate(328,319)"/>
<path d="M0 0 C6.51791392 -0.3540919 11.17521449 -0.03901852 17 3 C16.34 3.66 15.68 4.32 15 5 C13.35 5 11.7 5 10 5 C10.99 8.3 11.98 11.6 13 15 C7.77413419 13.61668258 4.96141204 10.32133539 2 6 C0.625 2.5625 0.625 2.5625 0 0 Z " fill="#EEE401" transform="translate(120,367)"/>
<path d="M0 0 C0.99386719 0.00902344 1.98773438 0.01804687 3.01171875 0.02734375 C4.15060547 0.04474609 4.15060547 0.04474609 5.3125 0.0625 C3.98406322 5.13471315 1.97776714 8.31393133 -1.6875 12.0625 C-5 13.9375 -5 13.9375 -7.6875 15.0625 C-6.6975 11.7625 -5.7075 8.4625 -4.6875 5.0625 C-6.9975 4.7325 -9.3075 4.4025 -11.6875 4.0625 C-8.13167064 0.16802023 -5.13031675 -0.06035667 0 0 Z " fill="#EFEFEF" transform="translate(300.6875,360.9375)"/>
<path d="M0 0 C1.75570313 0.01353516 1.75570313 0.01353516 3.546875 0.02734375 C4.43890625 0.03894531 5.3309375 0.05054688 6.25 0.0625 C1.88339858 5.18196373 -3.59741833 8.39424178 -9.75 11.0625 C-11.07 11.0625 -12.39 11.0625 -13.75 11.0625 C-13.35446947 9.4114597 -12.93286103 7.7666485 -12.5 6.125 C-12.26796875 5.20847656 -12.0359375 4.29195313 -11.796875 3.34765625 C-10.75 1.0625 -10.75 1.0625 -9.0625 0.25 C-6.03046683 0.00415947 -3.04215726 -0.03042157 0 0 Z " fill="#068C3F" transform="translate(375.75,318.9375)"/>
<path d="M0 0 C5.75091126 0.9325802 10.80780113 2.84772684 15 7 C15.86112562 10.7993906 15.61278372 14.17350608 15 18 C10.78909956 15.81738668 8.52501436 13.42927578 5.8125 9.5625 C4.80123047 8.14130859 4.80123047 8.14130859 3.76953125 6.69140625 C2.32739414 4.49795709 1.09651496 2.37859399 0 0 Z " fill="#F1E701" transform="translate(30,285)"/>
<path d="M0 0 C5.61 0 11.22 0 17 0 C19.475 4.455 19.475 4.455 22 9 C16.07130874 9.43173825 12.31284463 8.16896812 7.0625 5.5 C6.37865234 5.16613281 5.69480469 4.83226562 4.99023438 4.48828125 C3.32078773 3.67106961 1.65950015 2.8372253 0 2 C0 1.34 0 0.68 0 0 Z " fill="#F4EB00" transform="translate(56,342)"/>
<path d="M0 0 C2.6795415 2.5009054 4.72213267 4.54502538 6 8 C5.9765625 11.234375 5.9765625 11.234375 5.625 14.75 C5.51414062 15.92046875 5.40328125 17.0909375 5.2890625 18.296875 C5.19367188 19.18890625 5.09828125 20.0809375 5 21 C1.535 19.02 1.535 19.02 -2 17 C-2.05441656 15.10448978 -2.09298035 13.2085208 -2.125 11.3125 C-2.14820312 10.25675781 -2.17140625 9.20101563 -2.1953125 8.11328125 C-1.99858729 4.97748141 -1.33057654 2.82354627 0 0 Z " fill="#F1E801" transform="translate(88,314)"/>
<path d="M0 0 C0 5.86077844 -4.7842391 11.74578772 -8.80078125 15.83203125 C-10.1512026 16.95039929 -11.56850302 17.98747775 -13 19 C-14.26205564 15.21383307 -15.14949729 11.87314691 -14 8 C-10.01802825 4.11991239 -5.14123898 1.95421872 0 0 Z " fill="#028A3D" transform="translate(395,278)"/>
<path d="M0 0 C-1.65411177 7.59857596 -4.79492386 11.41620266 -11 16 C-12.27351308 13.45297384 -11.80191925 12.5717055 -11.0625 9.875 C-10.86785156 9.15054687 -10.67320312 8.42609375 -10.47265625 7.6796875 C-10.23869141 6.84824219 -10.23869141 6.84824219 -10 6 C-12.97 5.505 -12.97 5.505 -16 5 C-11.83245968 -0.09366039 -6.19073701 -0.24762948 0 0 Z " fill="#F0F0F0" transform="translate(322,351)"/>
<path d="M0 0 C-4.6855446 5.99891695 -10.20199103 12.50971384 -18 14 C-17.84960935 10.41796824 -17.43901402 7.30248541 -16 4 C-11.3209438 0.61406479 -5.72213037 -0.60232951 0 0 Z " fill="#02883B" transform="translate(391,300)"/>
<path d="M0 0 C6.258654 -0.5326514 10.45108785 1.18150494 16 4 C16 4.33 16 4.66 16 5 C13.69 5.33 11.38 5.66 9 6 C9.99 9.3 10.98 12.6 12 16 C6.86606891 13.58403243 3.90019459 9.74745228 1 5 C0.125 2 0.125 2 0 0 Z " fill="#F0E601" transform="translate(104,357)"/>
<path d="M0 0 C-0.26053915 6.25293959 -2.43441865 10.6274905 -7 15 C-7.99 15 -8.98 15 -10 15 C-9.34 12.03 -8.68 9.06 -8 6 C-10.31 6 -12.62 6 -15 6 C-10.45815256 0.95350285 -6.74558506 -0.31374814 0 0 Z " fill="#ECEBEB" transform="translate(336,340)"/>
<path d="M0 0 C5.21733982 1.46737682 9.85063114 4.59567959 13 9 C13.37937409 12.52202702 12.87958214 15.58474749 12 19 C6.52893957 16.85657589 4.54331513 12.01930722 2 7 C1.12136498 4.65006577 0.5343695 2.45809971 0 0 Z " fill="#F1E801" transform="translate(29,265)"/>
<path d="M0 0 C-1.78792929 6.63415869 -4.32185738 12.84673352 -9 18 C-9.99 18 -10.98 18 -12 18 C-12.98769087 14.88552952 -13.47186384 12.25284859 -13 9 C-9.98216189 5.21191869 -5.1709296 0 0 0 Z " fill="#038B3E" transform="translate(397,259)"/>
<path d="M0 0 C3.40363008 4.02247191 4.67413888 7.96336803 5.5 13.125 C5 16 5 16 2 18.375 C1.01 18.91125 0.02 19.4475 -1 20 C-4.47623318 9.77578475 -4.47623318 9.77578475 -3.30859375 5.421875 C-2.1875 3.25 -2.1875 3.25 0 0 Z " fill="#018A3C" transform="translate(346,296)"/>
<path d="M0 0 C6.15222436 0.43173504 9.81917949 1.65405342 15 5 C15 5.33 15 5.66 15 6 C12.69 6 10.38 6 8 6 C8.66 9.63 9.32 13.26 10 17 C4.82045793 12.99318444 1.97557594 10.27535886 0 4 C0 2.68 0 1.36 0 0 Z " fill="#F0E701" transform="translate(90,346)"/>
<path d="M0 0 C0.66 0 1.32 0 2 0 C4.90085775 5.24385825 5.2272088 8.19072495 3.73828125 13.984375 C3 16 3 16 1 19 C-1.5625 17.5625 -1.5625 17.5625 -4 15 C-4.57514647 9.48905112 -2.77471512 4.70495172 0 0 Z " fill="#F2E801" transform="translate(79,303)"/>
<path d="M0 0 C5.42892065 0.43431365 8.70796704 1.62768839 13 5 C13.33 5.66 13.66 6.32 14 7 C11.69 7 9.38 7 7 7 C7.33 10.3 7.66 13.6 8 17 C3.2502052 12.76369653 0.22776366 8.56829734 -0.1875 2.0625 C-0.125625 1.381875 -0.06375 0.70125 0 0 Z " fill="#ECE301" transform="translate(77,334)"/>
<path d="M0 0 C12.32395574 0.90934042 12.32395574 0.90934042 15 3 C16.03194741 6.29240365 16.57730357 9.58057518 17 13 C12.1889131 11.7038946 9.31559144 9.89135709 5.6875 6.5 C4.82511719 5.7059375 3.96273437 4.911875 3.07421875 4.09375 C1 2 1 2 0 0 Z " fill="#F6ED00" transform="translate(36,307)"/>
<path d="M0 0 C0.66 0 1.32 0 2 0 C-1.76717557 16.51145038 -1.76717557 16.51145038 -7 20 C-8.64882826 15.82943441 -9.3096922 13.31079594 -8 9 C-6.40625 6.796875 -6.40625 6.796875 -4.5 4.75 C-3.8709375 4.06421875 -3.241875 3.3784375 -2.59375 2.671875 C-1.73729192 1.77343369 -0.87770076 0.87770076 0 0 Z " fill="#018B3C" transform="translate(394,239)"/>
<path d="M0 0 C4.54557752 2.27278876 8.80349612 5.31233927 11 10 C10.61102446 13.3062921 9.49003814 16.04005936 8 19 C5 18 5 18 3.8671875 15.99609375 C1.77161667 10.59216111 0.42862382 5.78642151 0 0 Z " fill="#F3EA01" transform="translate(31,246)"/>
<path d="M0 0 C0.66 0.33 1.32 0.66 2 1 C3.94311152 7.13038001 2.72871925 11.75830251 -0.08984375 17.34765625 C-0.54037109 18.16556641 -0.54037109 18.16556641 -1 19 C-3.5625 17.4375 -3.5625 17.4375 -6 15 C-6.23338733 8.93192948 -3.36308662 4.77781678 0 0 Z " fill="#F2E901" transform="translate(73,290)"/>
<path d="M0 0 C4.22201191 3.78525206 6.70370043 7.48145368 7.375 13.1875 C7 16 7 16 5.625 17.875 C4 19 4 19 2 19 C-1.60618855 12.83073529 -2.3977073 8.82147498 -0.578125 1.87109375 C-0.29195313 0.94490234 -0.29195313 0.94490234 0 0 Z " fill="#018B3C" transform="translate(352,283)"/>
<path d="M0 0 C5.00028314 1.34153938 9.19067503 3.48370003 13 7 C13 7.66 13 8.32 13 9 C10.69 9 8.38 9 6 9 C6 11.64 6 14.28 6 17 C2.65118953 14.28905819 1.40130709 11.00373453 0 7 C-0.1875 3.0625 -0.1875 3.0625 0 0 Z " fill="#EDE401" transform="translate(65,319)"/>
<path d="M0 0 C0.64317031 7.07487342 -1.17264102 11.09493185 -5 17 C-5.33 17 -5.66 17 -6 17 C-6 14.03 -6 11.06 -6 8 C-8.31 8.33 -10.62 8.66 -13 9 C-11.60724746 5.6227555 -10.17726069 4.12929695 -7.0625 2.25 C-6.37285156 1.82203125 -5.68320312 1.3940625 -4.97265625 0.953125 C-3 0 -3 0 0 0 Z " fill="#F0F0EF" transform="translate(361,313)"/>
<path d="M0 0 C-0.46575895 5.70554718 -1.81215551 9.21823326 -5 14 C-5.99 14.66 -6.98 15.32 -8 16 C-7.67 13.03 -7.34 10.06 -7 7 C-9.31 7 -11.62 7 -14 7 C-9.53539727 2.15271704 -6.66016176 0 0 0 Z " fill="#F0F0EF" transform="translate(350,327)"/>
<path d="M0 0 C6.35945776 1.24086981 9.18350306 5.14469324 13 10 C9.37673261 11.2077558 8.35853631 10.54311128 5 9 C4.67 11.64 4.34 14.28 4 17 C0.99988164 13.99988164 0.09568308 10.83292899 -0.125 6.60546875 C-0.125 4.39999233 -0.08814358 2.20358941 0 0 Z " fill="#EAE101" transform="translate(56,304)"/>
<path d="M0 0 C3.45747731 3.23013633 4.8526314 6.36162666 5.12109375 11.16796875 C5.12453521 13.11239513 5.06700946 15.05672556 5 17 C4.34 16.67 3.68 16.34 3 16 C2.375 13.9375 2.375 13.9375 2 12 C1.4225 12.144375 0.845 12.28875 0.25 12.4375 C-1.83333333 12.95833333 -3.91666667 13.47916667 -6 14 C-5.62257767 7.83543524 -3.84129692 4.82624485 0 0 Z " fill="#E9E8E8" transform="translate(376,264)"/>
<path d="M0 0 C10.82892826 3.26256172 10.82892826 3.26256172 13 6 C13.32237869 8.75387894 13.18301413 11.20903452 13 14 C11.32700041 13.34938905 9.66140763 12.67966676 8 12 C7.3296875 11.72929687 6.659375 11.45859375 5.96875 11.1796875 C3.56676413 9.74040231 2.91683837 8.51888918 1.75 6 C1.41484375 5.29875 1.0796875 4.5975 0.734375 3.875 C0 2 0 2 0 0 Z " fill="#02893B" transform="translate(354,230)"/>
<path d="M0 0 C3 1 3 1 4 3 C4.42484112 8.02893321 4.35785972 12.4316468 2 17 C1.67 17 1.34 17 1 17 C0.67 14.36 0.34 11.72 0 9 C-0.94875 9.495 -1.8975 9.99 -2.875 10.5 C-6 12 -6 12 -8 12 C-6.49087042 7.01987239 -3.44338151 3.75740058 0 0 Z " fill="#E9E8E8" transform="translate(373,282)"/>
<path d="M0 0 C3.25537019 3.07940424 6.14619454 5.8804323 8 10 C7.80062929 13.98741425 6.16548487 16.70469694 4 20 C2 19 2 19 1.3671875 17.28515625 C0.07543921 11.45178501 -0.2241478 5.96482204 0 0 Z " fill="#E9DF02" transform="translate(40,211)"/>
<path d="M0 0 C0.3540919 6.51791392 0.03901852 11.17521449 -3 17 C-3.33 17 -3.66 17 -4 17 C-4 14.36 -4 11.72 -4 9 C-6.64 9.33 -9.28 9.66 -12 10 C-10.63746417 6.88175879 -9.14891747 4.95262649 -6.5625 2.75 C-5.66724609 1.96882813 -5.66724609 1.96882813 -4.75390625 1.171875 C-3 0 -3 0 0 0 Z " fill="#F3F3F2" transform="translate(370,298)"/>
<path d="M0 0 C8.38055691 6.6814851 8.38055691 6.6814851 10 11 C9.30883699 13.93744278 8.34290035 16.31419929 7 19 C4 18 4 18 3.0859375 16.25 C1.36474624 10.80271338 0.45224817 5.698327 0 0 Z " fill="#EFE601" transform="translate(34,228)"/>
<path d="M0 0 C4.72089551 1.38849868 8.2011422 3.97043877 11 8 C11 11.62333737 10.03003935 12.95494097 8 16 C1.4735426 10.70044843 1.4735426 10.70044843 0.3125 6.53125 C0.0902731 4.3367594 -0.03499411 2.20462914 0 0 Z " fill="#018B3C" transform="translate(357,258)"/>
<path d="M0 0 C3.39187279 1.41573821 5.09697541 3.04230966 7.25 6 C7.77078125 6.70125 8.2915625 7.4025 8.828125 8.125 C10 10 10 10 10 12 C7.36 11.34 4.72 10.68 2 10 C1.67 12.31 1.34 14.62 1 17 C-1.40503353 13.3924497 -1.2396541 11.65163611 -1.1875 7.375 C-1.18105469 6.20710938 -1.17460938 5.03921875 -1.16796875 3.8359375 C-1 1 -1 1 0 0 Z " fill="#F0E601" transform="translate(51,288)"/>
<path d="M0 0 C1.24968792 3.74906375 0.59537614 5.67917529 -0.3125 9.5 C-0.70888672 11.21703125 -0.70888672 11.21703125 -1.11328125 12.96875 C-2 16 -2 16 -4 19 C-4.66 19 -5.32 19 -6 19 C-8.61988561 14.10954685 -8.61988561 14.10954685 -9 11 C-6.94703123 6.60633578 -3.41656538 3.36479923 0 0 Z " fill="#018B3C" transform="translate(391,222)"/>
<path d="M0 0 C0.33 0 0.66 0 1 0 C1.3689719 7.31110994 0.81552726 13.21256822 -2 20 C-7 13.40909091 -7 13.40909091 -7 10.8125 C-5.51521742 6.63654898 -2.90373436 3.32444587 0 0 Z " fill="#018A3C" transform="translate(385,205)"/>
<path d="M0 0 C3.24411451 3.12321583 5.35298938 5.75244631 7 10 C6.89237948 14.41244139 4.86346873 16.76705143 2 20 C0 18 0 18 -0.22705078 16.12060547 C-0.21657715 15.37697754 -0.20610352 14.63334961 -0.1953125 13.8671875 C-0.18886719 13.06152344 -0.18242188 12.25585938 -0.17578125 11.42578125 C-0.15064453 10.16314453 -0.15064453 10.16314453 -0.125 8.875 C-0.11597656 8.02550781 -0.10695312 7.17601562 -0.09765625 6.30078125 C-0.07405647 4.20040116 -0.03818483 2.10016556 0 0 Z " fill="#F0E601" transform="translate(47,195)"/>
<path d="M0 0 C3 1 3 1 4.1328125 2.671875 C5.92535332 6.42633057 7.47766177 9.82129414 8 14 C4.9168649 12.80100302 1.93720508 11.52299523 -1 10 C-1.33 11.65 -1.66 13.3 -2 15 C-2.33 15 -2.66 15 -3 15 C-3.55353075 4.44191344 -3.55353075 4.44191344 0 0 Z " fill="#EFE501" transform="translate(49,271)"/>
<path d="M0 0 C5.61854752 -0.34399271 9.25548019 0.05839772 14 3 C14.9375 6.6875 14.9375 6.6875 15 10 C8.15301724 10 8.15301724 10 4.91015625 7.1875 C0 1.56441718 0 1.56441718 0 0 Z " fill="#02883B" transform="translate(339,192)"/>
<path d="M0 0 C-0.19304576 8.21321962 -0.19304576 8.21321962 -3.5 11.4375 C-4.7375 12.2109375 -4.7375 12.2109375 -6 13 C-6.33 13.66 -6.66 14.32 -7 15 C-7.66 15 -8.32 15 -9 15 C-9.66 12.69 -10.32 10.38 -11 8 C-3.21621622 0 -3.21621622 0 0 0 Z " fill="#F5EB00" transform="translate(69,265)"/>
<path d="M0 0 C-0.87538614 4.18544 -1.65598298 7.83889654 -4.98046875 10.7109375 C-6.95038875 11.91729559 -8.91224461 13.01315125 -11 14 C-11.33 11.36 -11.66 8.72 -12 6 C-10.56839732 4.99157547 -9.12948547 3.99352109 -7.6875 3 C-6.88699219 2.443125 -6.08648437 1.88625 -5.26171875 1.3125 C-3 0 -3 0 0 0 Z " fill="#F2E801" transform="translate(70,251)"/>
<path d="M0 0 C4.2282731 3.67192138 5.99417955 6.46798751 7 12 C6.625 14.4375 6.625 14.4375 6 16 C2 11.25 2 11.25 2 9 C0.02 10.32 -1.96 11.64 -4 13 C-3.40546697 3.40546697 -3.40546697 3.40546697 0 0 Z " fill="#EBEBEB" transform="translate(376,248)"/>
<path d="M0 0 C4.93317299 0.43527997 7.68649274 2.3782595 11 6 C11.5129419 8.85555282 11.29792728 11.07038172 11 14 C9.65686601 13.35330586 8.32608822 12.68096422 7 12 C6.13375 11.649375 5.2675 11.29875 4.375 10.9375 C0.79138126 8.01402156 0.62254187 4.43212646 0 0 Z " fill="#018B3C" transform="translate(357,245)"/>
<path d="M0 0 C-1.55937136 3.50858556 -3.20122673 6.34475356 -6 9 C-8.99588982 9.71404628 -11.92642216 9.92775779 -15 10 C-14.4375 6.6875 -14.4375 6.6875 -13 3 C-8.61054546 0.38320979 -5.07112816 -0.37105816 0 0 Z " fill="#EDE301" transform="translate(87,198)"/>
<path d="M0 0 C0.33 0 0.66 0 1 0 C1 5.94 1 11.88 1 18 C0.01 18.33 -0.98 18.66 -2 19 C-5.98001378 14.89937974 -5.98001378 14.89937974 -6.0625 11.1875 C-4.6790549 7.03716469 -2.6269068 3.49662594 0 0 Z " fill="#018B3C" transform="translate(378,189)"/>
<path d="M0 0 C0.8119452 7.44283101 -1.47682083 11.18448392 -6 17 C-7.32 15.35 -8.64 13.7 -10 12 C-8.73050758 7.810675 -4.99190297 0 0 0 Z " fill="#F3E901" transform="translate(71,278)"/>
<path d="M0 0 C0.66 0.33 1.32 0.66 2 1 C3.00496852 4.01490557 3.10335303 6.04181692 3.0625 9.1875 C3.05347656 10.08855469 3.04445313 10.98960937 3.03515625 11.91796875 C3.02355469 12.60503906 3.01195312 13.29210937 3 14 C1.35 12.68 -0.3 11.36 -2 10 C-4.97 12.475 -4.97 12.475 -8 15 C-7.39818232 8.68091431 -4.69461209 4.22515088 0 0 Z " fill="#ECE201" transform="translate(52,238)"/>
<path d="M0 0 C-1.81299701 4.9141761 -3.41595027 8.1344012 -8.25 10.5 C-9.48976517 11.02486409 -10.73692641 11.53401169 -12 12 C-12.69679974 6.86110195 -12.69679974 6.86110195 -12 4 C-8.47880021 0.39496212 -4.93848875 -1.76851286 0 0 Z " fill="#F8EE00" transform="translate(72,238)"/>
<path d="M0 0 C4.81459809 2.04541749 7.47733404 5.49894191 10 10 C10.0625 12.875 10.0625 12.875 9 15 C8.01 15.66 7.02 16.32 6 17 C1.47682083 11.18448392 -0.8119452 7.44283101 0 0 Z " fill="#018B3C" transform="translate(355,271)"/>
<path d="M0 0 C1.60495567 0.11442461 3.20898119 0.24194694 4.8125 0.375 C5.70582031 0.44460937 6.59914063 0.51421875 7.51953125 0.5859375 C10 1 10 1 13 3 C13.6875 6.625 13.6875 6.625 14 10 C9.15425761 9.38768397 5.2061698 8.87327924 1.9375 5 C0 2 0 2 0 0 Z " fill="#02883B" transform="translate(346,205)"/>
<path d="M0 0 C0.66 0 1.32 0 2 0 C4.66590937 4.55426184 5.31563182 7.73946963 5 13 C4.01 12.34 3.02 11.68 2 11 C-1.12498166 10.6626154 -1.12498166 10.6626154 -3.1875 13 C-3.785625 13.66 -4.38375 14.32 -5 15 C-4.72706899 8.8590522 -4.02720165 4.75942013 0 0 Z " fill="#EFE501" transform="translate(49,254)"/>
<path d="M0 0 C-2.87883976 6.35743781 -2.87883976 6.35743781 -5.9765625 8.1328125 C-8.6926847 9.15012372 -11.08507081 10 -14 10 C-13.9375 6.6875 -13.9375 6.6875 -13 3 C-8.638729 0.34903135 -5.05813957 -0.37010777 0 0 Z " fill="#EEE401" transform="translate(81,211)"/>
<path d="M0 0 C2.36557373 2.13300328 3.62967528 3.95949399 4.75 6.9375 C5.01296875 7.60652344 5.2759375 8.27554688 5.546875 8.96484375 C6.07931128 11.35621703 5.82421794 12.71050574 5 15 C3.5625 16.75 3.5625 16.75 2 18 C1.34 18 0.68 18 0 18 C-1.35119149 15.29761702 -1.13237128 13.13985554 -1.125 10.125 C-1.12757812 9.07570312 -1.13015625 8.02640625 -1.1328125 6.9453125 C-1.01998664 4.44323315 -0.72508762 2.38243077 0 0 Z " fill="#ECE301" transform="translate(55,181)"/>
<path d="M0 0 C1.41655793 -0.0272415 2.83327045 -0.04650467 4.25 -0.0625 C5.43335938 -0.07990234 5.43335938 -0.07990234 6.640625 -0.09765625 C8.90691002 -0.00385306 10.8288895 0.36758937 13 1 C13.66 3.31 14.32 5.62 15 8 C8.18461113 8.71740936 8.18461113 8.71740936 4.91015625 6.734375 C3.12678067 5.23181725 1.48880229 3.79586776 0 2 C0 1.34 0 0.68 0 0 Z " fill="#02873B" transform="translate(325,168)"/>
<path d="M0 0 C-0.95408218 2.99752686 -2.04998683 5.515938 -4 8 C-7.23710162 9.55766489 -10.47590221 10.35436376 -14 11 C-14 7.75 -14 7.75 -13 4 C-9.21264789 0.92941313 -4.88319767 -0.61039971 0 0 Z " fill="#F3E901" transform="translate(76,224)"/>
<path d="M0 0 C4.97306516 0.49730652 8.63799813 1.55302334 13 4 C13 6.31 13 8.62 13 11 C3.71337423 7.88122699 3.71337423 7.88122699 0.875 4.375 C0 2 0 2 0 0 Z " fill="#018B3C" transform="translate(351,218)"/>
<path d="M0 0 C-3.2849162 5.7877095 -3.2849162 5.7877095 -6 8 C-8.26171875 8.51171875 -8.26171875 8.51171875 -10.6875 8.6875 C-11.49574219 8.75324219 -12.30398437 8.81898438 -13.13671875 8.88671875 C-13.75160156 8.92410156 -14.36648437 8.96148437 -15 9 C-13.66582438 2.45041061 -13.66582438 2.45041061 -10.875 0.5625 C-7.15829648 -0.16468112 -3.78617191 -0.12834481 0 0 Z " fill="#EFE501" transform="translate(94,186)"/>
<path d="M0 0 C4.22174141 1.50776479 5.88717524 4.15164062 8 8 C8.25 10.875 8.25 10.875 8 13 C7.1028125 12.2265625 7.1028125 12.2265625 6.1875 11.4375 C5.465625 10.963125 4.74375 10.48875 4 10 C0.88214887 10.64644661 0.88214887 10.64644661 0 13 C-0.66 13 -1.32 13 -2 13 C-2.19294408 8.17639811 -1.75747614 4.50353262 0 0 Z " fill="#EFEEEE" transform="translate(373,232)"/>
<path d="M0 0 C5.21979128 -0.1799928 9.07262981 0.02905192 14 2 C14.33 3.98 14.66 5.96 15 8 C8.15341675 8.84080847 8.15341675 8.84080847 4.91015625 6.4765625 C0 1.55636503 0 1.55636503 0 0 Z " fill="#018C3D" transform="translate(332,180)"/>
<path d="M0 0 C2 2 2 2 2.265625 5.1875 C2.26046875 6.445625 2.2553125 7.70375 2.25 9 C2.25773437 10.8871875 2.25773437 10.8871875 2.265625 12.8125 C2 16 2 16 0 18 C-3.7560241 14.59337349 -3.7560241 14.59337349 -5 12 C-4.47220786 7.43615032 -2.51955715 3.77933573 0 0 Z " fill="#018B3C" transform="translate(370,175)"/>
<path d="M0 0 C3 1 3 1 4.01953125 2.92578125 C4.28121094 3.71339844 4.54289062 4.50101563 4.8125 5.3125 C5.08707031 6.09238281 5.36164063 6.87226563 5.64453125 7.67578125 C6.08054128 10.52661609 5.5771225 11.62666032 4 14 C1.875 15.75 1.875 15.75 0 17 C-1 16 -1 16 -1.1328125 13.41796875 C-1.13023438 12.35191406 -1.12765625 11.28585938 -1.125 10.1875 C-1.12757812 9.12917969 -1.13015625 8.07085937 -1.1328125 6.98046875 C-1.02063661 4.46310983 -0.7309121 2.39576745 0 0 Z " fill="#EAE101" transform="translate(63,169)"/>
<path d="M0 0 C0.66 0 1.32 0 2 0 C5.95294118 8.23529412 5.95294118 8.23529412 5 13 C2 15.375 2 15.375 -1 17 C-2 16 -2 16 -2.1875 12.4375 C-2.14774773 8.04089906 -1.2047916 4.21677059 0 0 Z " fill="#E3D902" transform="translate(72,156)"/>
<path d="M0 0 C1.26237731 2.52475462 1.09856404 4.31200466 1.0625 7.125 C1.05347656 8.03507813 1.04445313 8.94515625 1.03515625 9.8828125 C1.02355469 10.58148438 1.01195312 11.28015625 1 12 C0.34 12 -0.32 12 -1 12 C-1.33 11.34 -1.66 10.68 -2 10 C-4.92879371 10.62759865 -7.36095629 11.58622659 -10 13 C-8.90499334 8.51047268 -5.51962971 0 0 0 Z " fill="#EEE401" transform="translate(57,223)"/>
<path d="M0 0 C3.08364682 0.33039073 3.97847097 0.97657135 6.125 3.3125 C9.12412178 7.61124122 9.12412178 7.61124122 10 10 C9.67 10.99 9.34 11.98 9 13 C6.69 11.35 4.38 9.7 2 8 C1.34 9.32 0.68 10.64 0 12 C-1.88059033 10.11940967 -1.12361218 7.50109962 -1.1328125 5.0078125 C-1 3 -1 3 0 0 Z " fill="#EBEBEB" transform="translate(369,217)"/>
<path d="M0 0 C3.64782872 1.24696186 5.80845364 2.44981827 8.25 5.4375 C9.00023437 6.33275391 9.00023437 6.33275391 9.765625 7.24609375 C11 9 11 9 12 12 C9.33333333 10.66666667 6.66666667 9.33333333 4 8 C3.67 9.65 3.34 11.3 3 13 C2.34 13 1.68 13 1 13 C-0.32229189 10.35541621 -0.09677194 8.32238699 -0.0625 5.375 C-0.05347656 4.37210938 -0.04445313 3.36921875 -0.03515625 2.3359375 C-0.02355469 1.56507813 -0.01195312 0.79421875 0 0 Z " fill="#ECEBEB" transform="translate(363,202)"/>
<path d="M0 0 C0.90105469 0.00902344 1.80210938 0.01804688 2.73046875 0.02734375 C3.41753906 0.03894531 4.10460937 0.05054688 4.8125 0.0625 C3.21221233 3.41548369 2.20481911 5.32284918 -1.1875 7.0625 C-4.20476886 7.30742511 -7.16768176 7.23672028 -10.1875 7.0625 C-9.375 4.125 -9.375 4.125 -8.1875 1.0625 C-5.17259443 0.05753148 -3.14568308 -0.04085303 0 0 Z " fill="#EEE501" transform="translate(104.1875,162.9375)"/>
<path d="M0 0 C1.51400391 0.01740234 1.51400391 0.01740234 3.05859375 0.03515625 C4.07050781 0.04417969 5.08242187 0.05320313 6.125 0.0625 C7.29869141 0.07990234 7.29869141 0.07990234 8.49609375 0.09765625 C6.89580608 3.45063994 5.88841286 5.35800543 2.49609375 7.09765625 C-0.52117511 7.34258136 -3.48408801 7.27187653 -6.50390625 7.09765625 C-3.08955189 0.12049734 -3.08955189 0.12049734 0 0 Z " fill="#EBE201" transform="translate(108.50390625,151.90234375)"/>
<path d="M0 0 C1.93559313 -0.13504138 3.873872 -0.23201129 5.8125 -0.3125 C6.89144531 -0.37050781 7.97039062 -0.42851562 9.08203125 -0.48828125 C12 0 12 0 13.88671875 2.39453125 C15 5 15 5 15 7 C10.08519607 7.43112315 7.11775347 7.49648044 3 4.625 C2.01 3.75875 1.02 2.8925 0 2 C0 1.34 0 0.68 0 0 Z " fill="#018A3C" transform="translate(309,146)"/>
<path d="M0 0 C0.66 0 1.32 0 2 0 C3.13480527 3.60993172 3.10015767 6.9842327 3.0625 10.75 C3.05347656 11.92046875 3.04445313 13.0909375 3.03515625 14.296875 C3.02355469 15.18890625 3.01195312 16.0809375 3 17 C0.53199953 15.84826645 -1.04783565 14.95216435 -3 13 C-3.046875 10.9765625 -3.046875 10.9765625 -2.75 8.625 C-2.66234375 7.85414063 -2.5746875 7.08328125 -2.484375 6.2890625 C-1.98335114 3.9213207 -1.17347456 2.10648302 0 0 Z " fill="#018A3C" transform="translate(361,162)"/>
<path d="M0 0 C1.93559313 -0.13504138 3.873872 -0.23201129 5.8125 -0.3125 C6.89144531 -0.37050781 7.97039062 -0.42851562 9.08203125 -0.48828125 C12 0 12 0 13.88671875 2.39453125 C15 5 15 5 15 7 C8.1572259 7.72029201 8.1572259 7.72029201 4.91015625 5.69921875 C3.16407476 4.20308758 1.5253265 2.72075896 0 1 C0 0.67 0 0.34 0 0 Z " fill="#008D3D" transform="translate(317,157)"/>
<path d="M0 0 C0.33 0 0.66 0 1 0 C2.5056904 5.80766296 3.21824777 10.9981863 3 17 C0.08482708 15.92598892 -1.77810176 15.22189824 -4 13 C-3.828125 10.72265625 -3.828125 10.72265625 -3.25 8.0625 C-3.06953125 7.18722656 -2.8890625 6.31195313 -2.703125 5.41015625 C-2 3 -2 3 0 0 Z " fill="#02883B" transform="translate(353,149)"/>
<path d="M0 0 C0.99 0 1.98 0 3 0 C3.05416188 1.60379341 3.09286638 3.20811406 3.125 4.8125 C3.14820313 5.70582031 3.17140625 6.59914062 3.1953125 7.51953125 C3 10 3 10 1 13 C0.34 11.68 -0.32 10.36 -1 9 C-3.38564077 9.57584432 -5.66682784 10.22227595 -8 11 C-6.60366572 6.55711819 -4.39598172 4.13475236 -1 1 C-0.67 0.67 -0.34 0.34 0 0 Z " fill="#F1E801" transform="translate(60,209)"/>
<path d="M0 0 C0.28571429 8.57142857 0.28571429 8.57142857 -2 12 C-2.66 12 -3.32 12 -4 12 C-4 10.68 -4 9.36 -4 8 C-6.64 8.66 -9.28 9.32 -12 10 C-9.57972507 5.41421591 -5.70061526 0 0 0 Z " fill="#ECE201" transform="translate(70,195)"/>
<path d="M0 0 C1.65322266 0.01740234 1.65322266 0.01740234 3.33984375 0.03515625 C4.99693359 0.04869141 4.99693359 0.04869141 6.6875 0.0625 C7.54214844 0.07410156 8.39679688 0.08570313 9.27734375 0.09765625 C4.77868904 6.77747688 4.77868904 6.77747688 1.09765625 7.5625 C-1.09765625 7.53515625 -1.09765625 7.53515625 -4.72265625 7.09765625 C-3.68524525 0.1321824 -3.68524525 0.1321824 0 0 Z " fill="#F7ED00" transform="translate(91.72265625,174.90234375)"/>
<path d="M0 0 C3.56786093 3.72298532 4 6.98683447 4 12 C1.6875 14.5 1.6875 14.5 -1 16 C-1.66 16 -2.32 16 -3 16 C-3.37851209 10.06997733 -2.10575375 5.52760359 0 0 Z " fill="#E6DD02" transform="translate(82,144)"/>
<path d="M0 0 C5.96351455 1.27789598 8.48417174 4.33716394 12 9 C8.37673261 10.2077558 7.35853631 9.54311128 4 8 C3.67 9.32 3.34 10.64 3 12 C2.34 12 1.68 12 1 12 C0.03929566 9.11788698 -0.10581883 7.30149956 -0.0625 4.3125 C-0.05347656 3.50425781 -0.04445313 2.69601563 -0.03515625 1.86328125 C-0.02355469 1.24839844 -0.01195312 0.63351563 0 0 Z " fill="#ECEBEB" transform="translate(357,189)"/>
<path d="M0 0 C0.66 0 1.32 0 2 0 C3.57371717 4.13100756 4.67290218 7.57807136 4 12 C1.625 14.375 1.625 14.375 -1 16 C-1.66 16 -2.32 16 -3 16 C-2.57910004 10.39538469 -2.08386889 5.27913453 0 0 Z " fill="#E2D902" transform="translate(91,133)"/>
<path d="M0 0 C5.18701457 0.31436452 8.5947359 3.30033267 12 7 C12 7.66 12 8.32 12 9 C6.25 8.125 6.25 8.125 4 7 C4 8.65 4 10.3 4 12 C2 11 2 11 0.875 8.25 C0.08026605 5.29813104 -0.17810598 3.02780163 0 0 Z " fill="#EBEAEA" transform="translate(349,176)"/>
<path d="M0 0 C3.5991308 5.3986962 4.26122419 10.6000073 4 17 C0.535 15.02 0.535 15.02 -3 13 C-2.88490339 11.58249437 -2.75746342 10.16598831 -2.625 8.75 C-2.55539062 7.96109375 -2.48578125 7.1721875 -2.4140625 6.359375 C-1.98492887 3.914123 -1.21399362 2.15163097 0 0 Z " fill="#03833A" transform="translate(334,126)"/>
<path d="M0 0 C4.51650194 0.53135317 7.42058156 2.23408575 11 5 C11.33 5.99 11.66 6.98 12 8 C9.69 7.67 7.38 7.34 5 7 C5 8.65 5 10.3 5 12 C2.26629955 9.63907689 1.08902355 7.43461272 0 4 C0 2.68 0 1.36 0 0 Z " fill="#E4E4E3" transform="translate(333,152)"/>
<path d="M0 0 C-0.49230769 6.4 -0.49230769 6.4 -3.0625 9.4375 C-3.701875 9.953125 -4.34125 10.46875 -5 11 C-5 9.68 -5 8.36 -5 7 C-7.64 7.33 -10.28 7.66 -13 8 C-9.28512894 2.90925077 -6.49189524 0 0 0 Z " fill="#E2D902" transform="translate(102,147)"/>
<path d="M0 0 C0.36923077 6.4 0.36923077 6.4 -1.5 9.4375 C-1.995 9.953125 -2.49 10.46875 -3 11 C-3.33 10.34 -3.66 9.68 -4 9 C-6.64 9.33 -9.28 9.66 -12 10 C-10.26177925 5.30680399 -5.26306196 0 0 0 Z " fill="#F0E601" transform="translate(77,182)"/>
<path d="M0 0 C2 1 2 1 3.125 3.5 C4.1889199 7.7556796 4.17434209 11.64144777 4 16 C2 15 0 14 -2 13 C-2.16682272 8.07872966 -2.24828052 4.49656104 0 0 Z " fill="#02893C" transform="translate(343,138)"/>
<path d="M0 0 C-0.71428571 8.57142857 -0.71428571 8.57142857 -4 12 C-4 10.35 -4 8.7 -4 7 C-6.97 7.66 -9.94 8.32 -13 9 C-5.66666667 0 -5.66666667 0 0 0 Z " fill="#EDE401" transform="translate(85,170)"/>
<path d="M0 0 C5.35152885 0.32433508 8.28280043 3.49704824 12 7 C11.67 7.66 11.34 8.32 11 9 C8.36 8.34 5.72 7.68 3 7 C2.67 8.32 2.34 9.64 2 11 C-0.32590854 7.36576791 -0.16265833 4.22911669 0 0 Z " fill="#EEEDED" transform="translate(342,164)"/>
<path d="M0 0 C0.32613618 4.67461851 -0.29417212 7.16674383 -3 11 C-3.33 9.68 -3.66 8.36 -4 7 C-6.64 7.33 -9.28 7.66 -12 8 C-8.79336149 3.66160672 -5.96322064 0 0 0 Z " fill="#EEE401" transform="translate(93,158)"/>
<path d="M0 0 C-0.51035831 4.3890815 -1.52214277 7.33708062 -4 11 C-4.33 9.68 -4.66 8.36 -5 7 C-7.31 7 -9.62 7 -12 7 C-8.5063473 3.20689136 -5.42241937 0 0 0 Z " fill="#ECE201" transform="translate(111,136)"/>
<path d="M0 0 C4.5076467 0.53031138 7.41954788 2.25221116 11 5 C11 5.66 11 6.32 11 7 C8.69 6.67 6.38 6.34 4 6 C4 7.65 4 9.3 4 11 C1.9656541 9.58480285 1.09589607 8.45017877 0.578125 6.01953125 C0.33726048 4.01823046 0.16467259 2.0090056 0 0 Z " fill="#F2F2F2" transform="translate(325,141)"/>
<path d="M0 0 C4.97874064 0.47416578 8.06718758 1.9099331 12 5 C12 5.66 12 6.32 12 7 C9.69 6.67 7.38 6.34 5 6 C4.67 7.32 4.34 8.64 4 10 C3.32845067 8.71086513 2.66291141 7.41859796 2 6.125 C1.62875 5.40570313 1.2575 4.68640625 0.875 3.9453125 C0 2 0 2 0 0 Z " fill="#02873B" transform="translate(315,130)"/>
<path d="M0 0 C0.33 0 0.66 0 1 0 C1.36263859 5.8022175 0.25684543 9.63999211 -2 15 C-2.66 15 -3.32 15 -4 15 C-3.71743908 13.06115111 -3.4236207 11.12394039 -3.125 9.1875 C-2.96257812 8.10855469 -2.80015625 7.02960938 -2.6328125 5.91796875 C-2 3 -2 3 0 0 Z " fill="#ECEBEB" transform="translate(230,264)"/>
<path d="M0 0 C1.84036681 2.76055022 2.68344114 4.74598117 3.625 7.875 C3.88539063 8.71804688 4.14578125 9.56109375 4.4140625 10.4296875 C5.00963022 13.04224458 5.10525251 15.33041371 5 18 C3.11846991 15.17770487 1.99965295 12.72109829 0.8125 9.5625 C0.26529297 8.14130859 0.26529297 8.14130859 -0.29296875 6.69140625 C-1.01860758 3.92916783 -0.97849698 2.63633262 0 0 Z " fill="#D7D6D6" transform="translate(180,261)"/>
<path d="M0 0 C0.66 0.33 1.32 0.66 2 1 C1.27683594 1.68835938 1.27683594 1.68835938 0.5390625 2.390625 C-0.09257812 3.00421875 -0.72421875 3.6178125 -1.375 4.25 C-2.00148438 4.85328125 -2.62796875 5.4565625 -3.2734375 6.078125 C-4.97310161 7.9700588 -5.98459866 9.68201309 -7 12 C-7.33 10.35 -7.66 8.7 -8 7 C-5.36 4.69 -2.72 2.38 0 0 Z " fill="#7E7B79" transform="translate(21,66)"/>
<path d="M0 0 C0.33 0 0.66 0 1 0 C1.33 3.63 1.66 7.26 2 11 C1.34 11 0.68 11 0 11 C-0.66 8.36 -1.32 5.72 -2 3 C-1.34 3 -0.68 3 0 3 C0 2.01 0 1.02 0 0 Z " fill="#D2D1D1" transform="translate(190,268)"/>
<path d="M0 0 C0.66 0.66 1.32 1.32 2 2 C1.828125 4.12890625 1.828125 4.12890625 1.25 6.5625 C1.06953125 7.36816406 0.8890625 8.17382812 0.703125 9.00390625 C0 11 0 11 -2 12 C-1 3.42857143 -1 3.42857143 0 0 Z " fill="#DCDBDA" transform="translate(236,267)"/>
</svg>
